<?xml version="1.0" encoding="UTF-8"?>
<svg width="46px" height="45px" viewBox="0 0 46 45" version="1.1" xmlns="http://www.w3.org/2000/svg" xmlns:xlink="http://www.w3.org/1999/xlink">
    <!-- Generator: Sketch 59.1 (86144) - https://sketch.com -->
    <title>Logo/Mark/Color</title>
    <desc>Created with Sketch.</desc>
    <defs>
        <linearGradient x1="99.4086691%" y1="7.58217607%" x2="50%" y2="100%" id="linearGradient-1">
            <stop stop-color="#FFDF76" stop-opacity="0" offset="0%"></stop>
            <stop stop-color="#FFFFFF" stop-opacity="0.368143575" offset="100%"></stop>
        </linearGradient>
    </defs>
    <g id="LP" stroke="none" stroke-width="1" fill="none" fill-rule="evenodd">
        <g id="RapidSkills-Beta-LP" transform="translate(-697.000000, -2392.000000)">
            <g id="Final-CTA" transform="translate(0.000000, 2288.000000)">
                <g id="Background">
                    <g id="Logo/Mark-white-alt" transform="translate(697.600002, 104.000000)">
                        <rect id="Rectangle" fill="#FFFFFF" fill-rule="nonzero" x="0" y="0" width="44.7999966" height="44.7999966" rx="5.59999957"></rect>
                        <g id="Logo" stroke-width="1" fill-rule="evenodd" transform="translate(12.879999, 5.600000)">
                            <path d="M17.3704519,17.3505453 L10.8954823,33.047866 C10.8260056,33.2162987 10.6617967,33.3261947 10.4795974,33.3261947 L0.453837891,33.3261947 C0.205377927,33.3261947 0.00396132908,33.1247781 0.00396132908,32.8763181 C0.00396132908,32.7531095 0.0544934518,32.6352926 0.143761163,32.5503713 L16.6444903,16.8530506 C16.8245058,16.6817999 17.1092632,16.6889052 17.2805139,16.8689207 C17.4029521,16.9976255 17.4381901,17.1863272 17.3704519,17.3505453 Z" id="Triangle" fill="#0077FF" transform="translate(8.701154, 25.031675) scale(-1, -1) translate(-8.701154, -25.031675) "></path>
                            <path d="M12.4882013,16.4543707 L9.15937667,24.6714362 C9.08792777,24.8478048 8.91324025,24.9601436 8.72312384,24.9519834 L3.95215232,24.7472039 C3.70392091,24.7365494 3.51132683,24.5266808 3.52198141,24.2784494 C3.52684793,24.1650688 3.57438516,24.0577164 3.65506581,23.9779074 L11.754862,15.9656214 C11.9315013,15.7908905 12.2163432,15.7924375 12.3910741,15.9690769 C12.5175156,16.0968994 12.5557089,16.2877311 12.4882013,16.4543707 Z" id="Triangle" fill="#0077FF" transform="translate(8.014717, 20.407568) scale(-1, -1) translate(-8.014717, -20.407568) "></path>
                            <path d="M12.4903887,16.5012455 L9.17102753,24.6772787 C9.0997286,24.8528975 8.92600575,24.9649906 8.73661028,24.9575825 L3.95338069,24.7704875 C3.70511058,24.7607765 3.51172023,24.5516414 3.52143126,24.3033713 C3.52589979,24.1891297 3.57369622,24.080875 3.65510796,24.0006051 L11.7576987,16.011667 C11.9346229,15.8372244 12.2194619,15.8392362 12.3939044,16.0161604 C12.5200363,16.1440867 12.5579675,16.3347899 12.4903887,16.5012455 Z" id="Triangle" fill="url(#linearGradient-1)" transform="translate(8.015658, 20.433565) scale(-1, -1) translate(-8.015658, -20.433565) "></path>
                            <path d="M12.4903887,16.5012455 L9.17102753,24.6772787 C9.0997286,24.8528975 8.92600575,24.9649906 8.73661028,24.9575825 L3.95338069,24.7704875 C3.70511058,24.7607765 3.51172023,24.5516414 3.52143126,24.3033713 C3.52589979,24.1891297 3.57369622,24.080875 3.65510796,24.0006051 L11.7576987,16.011667 C11.9346229,15.8372244 12.2194619,15.8392362 12.3939044,16.0161604 C12.5200363,16.1440867 12.5579675,16.3347899 12.4903887,16.5012455 Z" id="Triangle" fill="url(#linearGradient-1)" transform="translate(8.015658, 20.433565) scale(-1, -1) translate(-8.015658, -20.433565) "></path>
                            <path d="M9.1435027,16.1446899 L2.17538849,16.1446899 C1.92692851,16.1446899 1.7255119,15.9432733 1.7255119,15.6948133 C1.7255119,15.5699714 1.77738826,15.4507431 1.86873319,15.3656454 L18.2068475,0.144932465 L18.2068475,0.144932465 C18.3866833,-0.0307297599 18.6779557,-0.0304369896 18.8574225,0.145586386 C18.9865997,0.272285 19.0268392,0.461843528 18.9599194,0.628423444 L12.4842753,16.7478869 C12.4380698,16.8629035 12.3469921,16.9516176 12.2352711,16.9978715 L12.3571378,16.8782897 C12.4445436,16.7925229 12.4929547,16.6759012 12.4914355,16.5547689 C12.4883167,16.3061082 12.2798433,16.1070036 12.0257969,16.1100562 L9.1435027,16.1446899 Z" id="Path" fill="#0077FF"></path>
                        </g>
                    </g>
                </g>
            </g>
        </g>
    </g>
</svg>