<?xml version="1.0" encoding="UTF-8"?>
<svg width="22px" height="16px" viewBox="0 0 22 16" version="1.1" xmlns="http://www.w3.org/2000/svg" xmlns:xlink="http://www.w3.org/1999/xlink">
    <!-- Generator: Sketch 61 (89581) - https://sketch.com -->
    <title>Icon/Folder Open Alt</title>
    <desc>Created with Sketch.</desc>
    <g id="---UI-Screens" stroke="none" stroke-width="1" fill="none" fill-rule="evenodd">
        <g id="08_Edit-Standard-_-First-Time-Tips" transform="translate(-359.000000, -232.000000)" fill="#0077FF" fill-rule="nonzero">
            <g id="Work-Process-OPEN" transform="translate(340.000000, 197.000000)">
                <g id="Work-Process-Category" transform="translate(18.000000, 17.000000)">
                    <g id="Icon/Folder-Open-Alt" transform="translate(0.000000, 14.000000)">
                        <path d="M21.4712724,12.604077 C21.723136,12.604077 21.9471815,12.6518981 22.1434087,12.7474051 C22.3397724,12.842777 22.4378178,13.0004244 22.4376815,13.2204823 C22.4376815,13.4482402 22.3229996,13.6903174 22.0934996,13.9471191 L22.0934996,13.9471191 L18.3605452,18.3054541 C18.0419997,18.6797822 17.5958179,18.9971032 17.0218634,19.2575524 C16.4477725,19.5180015 15.9164998,19.6483611 15.4277725,19.6483611 L15.4277725,19.6483611 L3.33981815,19.6483611 C3.08795452,19.6483611 2.86390907,19.6005401 2.6676818,19.5051681 C2.47145453,19.4097962 2.37327271,19.2520138 2.37327271,19.0319559 C2.37327271,18.8044682 2.48809089,18.5622559 2.71772725,18.3054541 L2.71772725,18.3054541 L6.45068173,13.9471191 C6.76909082,13.572656 7.21540899,13.2556051 7.78936353,12.9948858 C8.36331806,12.7344367 8.89472715,12.604077 9.38359077,12.604077 L9.38359077,12.604077 Z M7.60595444,4.1515035 C8.28736352,4.1515035 8.87249987,4.39371577 9.3613635,4.87800524 C9.85022713,5.36215962 10.0945908,5.94182101 10.0945908,6.61685433 L10.0945908,6.61685433 L10.0945908,6.96902801 L16.1383634,6.96902801 C16.8199088,6.96902801 17.4049088,7.2111052 17.8937724,7.69539467 C18.3827724,8.17968413 18.6272724,8.7596157 18.6272724,9.43464902 L18.6272724,9.43464902 L18.6272724,11.1956525 L9.38359077,11.1956525 C8.68745442,11.1956525 7.95777262,11.3699157 7.19495445,11.7183069 C6.43213628,12.0666981 5.82477265,12.5051928 5.37299993,13.0335209 L5.37299993,13.0335209 L1.62886363,17.3921261 L1.57336364,17.4579138 C1.57336364,17.4285998 1.57145454,17.3826699 1.56777273,17.3203945 L1.56468687,17.2634775 C1.5630303,17.2291953 1.56218182,17.2022378 1.56218182,17.182605 L1.56218182,6.61685433 C1.56218182,5.94182101 1.80654545,5.36215962 2.29540908,4.87800524 C2.78427271,4.39371577 3.36940906,4.1515035 4.05081814,4.1515035 L4.05081814,4.1515035 Z" id="Combined-Shape"></path>
                    </g>
                </g>
            </g>
        </g>
    </g>
</svg>