<?xml version="1.0" encoding="UTF-8"?>
<svg width="19px" height="21px" viewBox="0 0 19 21" version="1.1" xmlns="http://www.w3.org/2000/svg" xmlns:xlink="http://www.w3.org/1999/xlink">
    <!-- Generator: Sketch 64 (93537) - https://sketch.com -->
    <title>Combined Shape</title>
    <desc>Created with Sketch.</desc>
    <g id="---UI-Screens" stroke="none" stroke-width="1" fill="none" fill-rule="evenodd">
        <g id="01_Edit-Standard-_-First-Time-Tips" transform="translate(-890.000000, -229.000000)" fill="#7F96AB" fill-rule="nonzero" stroke="#FFFFFF" stroke-width="0.5">
            <g id="Work-Process-OPEN" transform="translate(340.000000, 197.000000)">
                <g id="Work-Process-Category" transform="translate(18.000000, 17.000000)">
                    <g id="Numbers-and-Icons" transform="translate(400.000000, 16.000000)">
                        <g id="Number" transform="translate(133.000000, 0.000000)">
                            <path d="M11.6004028,0 L11.6004028,1.1231999 L10.4758866,1.1231999 L10.4758866,2.91885727 C11.7799978,3.22086348 12.9897776,3.83833091 14.0129426,4.73308835 L14.0129426,4.73308835 L14.8219975,3.92403342 L14.0268363,3.12872597 L14.8209737,2.33458856 L17.2055798,4.7191946 L16.4114424,5.51333201 L15.6162811,4.71817084 L14.80708,5.52722577 C16.1183574,7.02658064 16.8346898,8.92680676 16.8346898,10.9374515 C16.8346898,13.1361739 15.9783962,15.2034175 14.4236125,16.758201 C12.8688289,18.3129847 10.8015853,19.1692784 8.60286302,19.1692784 C6.40399445,19.1692784 4.33689715,18.3129847 2.78196728,16.758201 C1.22718365,15.2034175 0.370889968,13.1361739 0.370889968,10.9374515 C0.370889968,8.92680676 1.08722239,7.02658064 2.39849979,5.52722577 L2.39849979,5.52722577 L1.58944486,4.71817084 L0.794283691,5.51333201 L0,4.7191946 L2.38460604,2.33458856 L3.17874349,3.12887221 L2.38358228,3.92403342 L3.19263725,4.73308835 C4.21580212,3.83833091 5.42558202,3.22086348 6.72969318,2.91885727 L6.72969318,2.91885727 L6.72969318,1.1231999 L5.60517704,1.1231999 L5.60517704,0 L11.6004028,0 Z M8.60286302,3.82867843 C4.68307084,3.82867843 1.49408987,7.0176594 1.49408987,10.9374515 C1.49408987,14.8570975 4.68307084,18.0460785 8.60286302,18.0460785 C12.5225089,18.0460785 15.7114899,14.8570975 15.7114899,10.9374515 C15.7114899,7.0176594 12.5225089,3.82867843 8.60286302,3.82867843 Z M8.65557325,5 C11.9558504,5 14.6410002,7.68514977 14.6410002,10.9855732 C14.6410002,14.2858504 11.9558504,16.9710002 8.65557325,16.9710002 C5.35514977,16.9710002 2.67,14.2858504 2.67,10.9855732 C2.67,7.68514977 5.35514977,5 8.65557325,5 Z M8.0939733,6.15581362 C5.67646098,6.43515112 3.7931999,8.49449718 3.7931999,10.9855732 C3.7931999,13.666628 5.97451848,15.8478003 8.65557325,15.8478003 C11.1466493,15.8478003 13.2058491,13.9645392 13.4851866,11.5471732 L13.4851866,11.5471732 L10.2447256,11.5471732 C10.0127731,12.2012031 9.38813943,12.6712506 8.65557325,12.6712506 C7.72600833,12.6712506 6.96989587,11.9149919 6.96989587,10.9855732 C6.96989587,10.2528608 7.43979711,9.62822709 8.0939733,9.39642086 L8.0939733,9.39642086 Z M8.65557325,10.4229495 C8.34537703,10.4229495 8.09309578,10.675377 8.09309578,10.9855732 C8.09309578,11.2956232 8.34537703,11.5480507 8.65557325,11.5480507 C8.96562322,11.5480507 9.21805068,11.2956232 9.21805068,10.9855732 C9.21805068,10.675377 8.96562322,10.4229495 8.65557325,10.4229495 Z M9.2171732,6.15581362 L9.2171732,9.39642086 C9.69555692,9.56592461 10.0750756,9.94558958 10.2447256,10.4239733 L10.2447256,10.4239733 L13.4851866,10.4239733 C13.2272016,8.19073597 11.4502642,6.41394488 9.2171732,6.15581362 L9.2171732,6.15581362 Z M9.35268672,1.1231999 L7.85303933,1.1231999 L7.85303933,2.73955477 C8.10093307,2.71732477 8.35102053,2.70547853 8.60286302,2.70547853 C8.85470548,2.70547853 9.10479298,2.71732477 9.35268672,2.73955477 L9.35268672,2.73955477 L9.35268672,1.1231999 Z" id="Combined-Shape"></path>
                        </g>
                    </g>
                </g>
            </g>
        </g>
    </g>
</svg>