<?xml version="1.0" encoding="UTF-8"?>
<svg width="19px" height="18px" viewBox="0 0 19 18" version="1.1" xmlns="http://www.w3.org/2000/svg" xmlns:xlink="http://www.w3.org/1999/xlink">
    <!-- Generator: Sketch 64 (93537) - https://sketch.com -->
    <title>Combined Shape</title>
    <desc>Created with Sketch.</desc>
    <g id="---UI-Screens" stroke="none" stroke-width="1" fill="none" fill-rule="evenodd" opacity="0.5">
        <g id="01_Edit-Standard-_-First-Time-Tips" transform="translate(-821.000000, -230.000000)" fill="#002E58" fill-rule="nonzero">
            <g id="Work-Process-OPEN" transform="translate(340.000000, 197.000000)">
                <g id="Work-Process-Category" transform="translate(18.000000, 17.000000)">
                    <g id="Numbers-and-Icons" transform="translate(400.000000, 16.000000)">
                        <g id="Number" transform="translate(63.000000, 0.000000)">
                            <path d="M7.99499709,0.358327385 C8.0297895,0.554939605 7.8789184,0.772006824 7.6728163,0.815206559 C7.3955692,0.87321327 7.11504569,0.918397445 6.84013888,0.986021058 C6.15724043,1.15408787 5.52208402,1.42931445 4.95635639,1.84375713 C4.42152068,2.23576038 3.99605482,2.72378 3.66310867,3.28995603 C3.29490205,3.91612321 3.0599363,4.5912908 2.89595954,5.29225611 C2.79142631,5.73936573 2.71341643,6.19136013 2.6697309,6.6482393 C2.65927758,6.76013119 2.61309573,6.85263663 2.55739668,6.94605797 C2.10088288,7.71266245 1.64577327,8.47987753 1.19066365,9.2470926 C1.09003091,9.41653326 0.989710208,9.58612657 0.890949704,9.75648312 C0.787820648,9.93447213 0.825733448,10.0562862 1.01108491,10.1468072 C1.53063069,10.4003576 2.05017646,10.653908 2.57065836,10.9054739 C2.61293971,10.9259289 2.63447044,10.9506581 2.64039919,10.9952317 C2.67612771,11.2643523 2.71248031,11.5334729 2.74992505,11.8022882 L2.86522365,12.6145348 L2.86522365,12.6145348 C2.90688093,12.9132694 2.94557382,13.2123093 2.98863528,13.5108912 C3.03403702,13.8261118 3.06258864,14.1456067 3.13544986,14.4548741 C3.27009491,15.025019 3.7557844,15.4390037 4.34616314,15.5199078 C4.4090391,15.5284562 4.47394332,15.5249452 4.53806744,15.5249452 C5.24702119,15.5260138 5.95597495,15.5266244 6.66508472,15.5273876 C6.68255893,15.5275403 6.69987713,15.5290668 6.72296805,15.530288 L6.72296805,18 L5.8876383,18 L5.8876383,16.3516935 L5.80775618,16.3516935 C5.36153969,16.3516935 4.9153232,16.3542885 4.46926273,16.3509303 C3.95985823,16.3472667 3.50849309,16.1804211 3.112827,15.8691693 C2.64071123,15.497621 2.36268403,15.0137229 2.26517168,14.4316714 C2.22023799,14.1640773 2.19121832,13.8938881 2.15377358,13.6250728 L2.0275536,12.735891 L2.0275536,12.735891 C1.98511623,12.4328822 1.94392701,12.1297208 1.90242576,11.8267121 C1.88869602,11.7264216 1.8790228,11.6252151 1.85936431,11.5261458 C1.85390362,11.4986689 1.82394782,11.4673758 1.79695641,11.4539427 C1.4075311,11.260994 1.01685764,11.0703351 0.626028165,10.8796762 C0.308527968,10.7247372 0.106638409,10.4783614 0.0287845523,10.1405486 C-0.0347154869,9.86516937 0.00694178697,9.60230738 0.152820255,9.35638946 C0.7045061,8.42751884 1.25650398,7.49880086 1.80491341,6.56809845 C1.83939378,6.50932849 1.849067,6.43453037 1.86123654,6.36553291 C1.93316165,5.95872269 1.99369731,5.54962272 2.07467157,5.14449164 C2.1792048,4.62059945 2.34364962,4.11288808 2.55614852,3.62120488 C2.84774944,2.94649524 3.23499046,2.33208205 3.75360012,1.79887826 C4.36941008,1.16584186 5.10519924,0.714916008 5.93522432,0.404427455 C6.45040154,0.211631466 6.98352104,0.0844746491 7.52818599,0.00402849987 C7.7130694,-0.023295714 7.94694301,0.0876802831 7.99499709,0.358327385 Z M14.6259366,11.0014658 C14.7858236,11.0146263 14.9060716,11.1037372 14.9681924,11.2648345 C15.0261717,11.4149911 15.0025067,11.5586467 14.916573,11.6912031 C14.6899802,12.0409871 14.4898626,12.4074199 14.324651,12.7950999 C14.1127009,13.2928206 13.9591739,13.8095686 13.8763463,14.3504178 C13.8216208,14.7074955 13.8026888,15.0667932 13.8028367,15.4281521 C13.8031325,16.2583738 13.8015056,17.088754 13.800766,17.9191343 L13.800766,18 L13.0048809,18 C13.0026623,17.9838269 13,17.9733619 13,17.9628969 C13.0023665,17.027074 12.9995563,16.0912512 13.0088744,15.1557455 C13.0184883,14.1675977 13.2464123,13.2332019 13.6405832,12.3428859 C13.8208813,11.9358616 14.0320919,11.5484988 14.2742149,11.180639 C14.3589653,11.051888 14.4808403,10.9894153 14.6259366,11.0014658 Z M13.7013348,-1.13711124e-15 C13.7179668,0.0902663941 13.7353548,0.181439988 13.751382,0.273067182 C13.8188172,0.656963957 13.8857987,1.04101193 13.9529315,1.42505991 C13.9662371,1.5006599 13.9775771,1.5765623 13.9948139,1.65125509 C13.9993499,1.67091109 14.0188547,1.69449829 14.0374523,1.70251189 C14.2213115,1.78128708 14.4071363,1.85492148 14.5902395,1.93535987 C14.6321219,1.95365507 14.6535923,1.93399907 14.6800523,1.91494787 C15.0024107,1.68361189 15.3246179,1.4516711 15.646825,1.21988152 C15.7699018,1.13142953 15.8931298,1.04343113 16.0098562,0.959666337 L17.4388473,2.38850624 L17.4388473,2.38850624 C17.2995921,2.58657823 17.1536841,2.79387342 17.0079273,3.0013198 C16.8363154,3.24581019 16.6650058,3.49075417 16.4924866,3.73463975 C16.4682946,3.76881095 16.4631538,3.79557335 16.4816002,3.83790935 C16.5591658,4.01496454 16.6293226,4.19504372 16.7047714,4.37300611 C16.7124826,4.39130131 16.736221,4.41171331 16.7552722,4.41488851 C17.2850769,4.5027357 17.8153353,4.5884661 18.3455937,4.67480129 C18.3664593,4.67827889 18.3871736,4.68402449 18.4115168,4.68961889 L18.4115168,6.70103236 C18.3539097,6.71252356 18.2928249,6.72598036 18.2312865,6.73686676 C17.7400377,6.82335315 17.2487889,6.90908354 16.7578426,6.99723314 C16.738489,7.00071074 16.715053,7.02248354 16.7068882,7.04153474 C16.6282642,7.22524272 16.5514546,7.41016031 16.4770642,7.5958339 C16.4699578,7.6133731 16.4767618,7.6442179 16.4885554,7.6606987 C16.801237,8.09857387 17.1154305,8.53523944 17.4293217,8.97205621 C17.4405105,8.98762981 17.4512457,9.00365701 17.4624345,9.01983541 C16.9879689,9.49626657 16.516981,9.96906894 16.0405498,10.4474657 C15.947713,10.3827521 15.8535154,10.3178873 15.7600738,10.2522665 C15.396589,9.99734334 15.0331043,9.74257136 14.6706779,9.48658978 C14.6417987,9.46617778 14.6210843,9.46859698 14.5903907,9.48190258 C14.4104627,9.55946817 14.2294763,9.63476577 14.0478851,9.70824896 C14.0152259,9.72170576 13.9996523,9.73546496 13.9928483,9.77402096 C13.9009187,10.3073033 13.805814,10.8401321 13.711314,11.3729609 C13.709046,11.3853593 13.7036028,11.397304 13.6989156,11.4119704 L11.6882581,11.4119704 C11.6707189,11.3103641 11.6519701,11.2066409 11.6347333,11.1027665 C11.5766725,10.7540993 11.5192165,10.4052809 11.4614581,10.0564625 C11.4464893,9.96604494 11.4291013,9.87592975 11.4170053,9.78505856 C11.4118645,9.74635136 11.3978029,9.72684656 11.3600029,9.71187776 C11.1778069,9.63960417 10.9968205,9.56476017 10.8170437,9.48704338 C10.7784878,9.47041138 10.7549006,9.48054178 10.724963,9.50155857 C10.2848198,9.81046015 9.84422301,10.1184545 9.40362624,10.4266001 L9.38260944,10.4406617 L9.38260944,10.4406617 C8.90511987,9.96770814 8.42989831,9.49687137 7.95165274,9.02331301 C8.07472953,8.85064262 8.19584072,8.68069383 8.31710311,8.51119864 C8.5144191,8.23525866 8.71158389,7.95931868 8.90995827,7.68428589 C8.93369667,7.6513243 8.93596467,7.6245619 8.91933267,7.5860059 C8.84010388,7.40260031 8.76586468,7.21707792 8.68754309,7.03336994 C8.68028549,7.01673794 8.65821029,6.99844274 8.64051989,6.99526754 C8.35777591,6.94280114 8.07472953,6.89230035 7.79153195,6.84225315 C7.53993516,6.79780035 7.28803598,6.75470836 7.036288,6.71070916 C7.024192,6.70859236 7.012852,6.70224196 7,6.69740356 L7,4.68780449 C7.18612719,4.65680849 7.37074238,4.6261149 7.55535756,4.5954213 C7.91884234,4.5352437 8.28232712,4.47567091 8.64535829,4.41367891 C8.66289749,4.41065491 8.68330949,4.38857971 8.69102069,4.37058691 C8.77040068,4.18476212 8.84872228,3.99848374 8.92311267,3.81069335 C8.93218467,3.78755975 8.92522947,3.74809655 8.91056307,3.72677735 C8.61390869,3.29873018 8.31634711,2.87143901 8.01545913,2.44656704 C7.97584474,2.39077424 7.97523994,2.36144144 8.02589193,2.31124305 C8.4672447,1.87472868 8.90527107,1.43473671 9.34375105,0.995349534 C9.35871984,0.980380735 9.36945504,0.961027137 9.38260944,0.943185538 C9.61863263,1.11177353 9.84407181,1.27280152 10.0696622,1.43398071 C10.2937406,1.5939503 10.5173654,1.75482708 10.7429558,1.91267987 C10.7623094,1.92628787 10.7992021,1.93037027 10.8212773,1.92160067 C11.0074045,1.84841988 11.1921709,1.77206388 11.3761813,1.69419589 C11.3932669,1.68708949 11.4123181,1.66531669 11.4151909,1.64777749 C11.4768805,1.28217592 11.5363021,0.91596954 11.5963285,0.550065564 C11.6264173,0.367415976 11.6569597,0.184766388 11.6875021,-1.13711124e-15 L13.7013348,-1.13711124e-15 Z M13.0168524,0.820562346 L12.38151,0.820562346 C12.3034909,1.29366711 12.2244133,1.76223588 12.1507789,2.23171185 C12.1411021,2.29325025 12.1161541,2.31018465 12.0611173,2.32273425 C11.9244325,2.35403264 11.7885037,2.39001824 11.6543893,2.43069104 C11.3377765,2.52624943 11.0462629,2.67623982 10.7694158,2.85480701 C10.720427,2.88640781 10.6885238,2.88459341 10.641047,2.85011981 C10.2707582,2.58219343 9.89744541,2.31850065 9.52670303,2.05102786 C9.48587904,2.02154387 9.46440864,2.02623107 9.43220304,2.06025106 C9.35115985,2.14583026 9.26709265,2.22823425 9.18287426,2.31048705 C9.13131506,2.36098784 9.07703426,2.40891824 9.02592867,2.45624384 C9.03893187,2.47756304 9.04301427,2.48482064 9.04785267,2.49177584 C9.31290625,2.87143901 9.57705263,3.25155579 9.84437421,3.62955576 C9.88126701,3.68171976 9.88610541,3.71936855 9.84951501,3.77410295 C9.59459183,4.15573173 9.42161904,4.5730437 9.32515345,5.02104927 C9.30761425,5.10254606 9.28387585,5.15395406 9.19088786,5.15138366 C9.15354146,5.15032526 9.11574146,5.16484046 9.07794146,5.17103966 C8.66002469,5.24044045 8.24195672,5.30953885 7.81935275,5.37939325 L7.81935275,6.018062 C8.01787833,6.0534428 8.21458952,6.0889748 8.41130071,6.1237508 C8.68829909,6.17289079 8.96529747,6.22172839 9.24244705,6.26996119 C9.28236385,6.27691639 9.30081025,6.29369959 9.31139425,6.33679158 C9.35085745,6.49797077 9.39122784,6.65945236 9.44233344,6.81730515 C9.53895023,7.11516913 9.68531182,7.38959711 9.85662141,7.6507195 C9.88519821,7.69426509 9.88534941,7.72662189 9.85314381,7.76895789 C9.77557822,7.87086668 9.70315342,7.97685787 9.62861183,8.08103467 C9.43507584,8.35183385 9.24153985,8.62263303 9.04770147,8.89312981 C9.03091827,8.91641461 9.01368147,8.93470981 9.04316547,8.96374021 L9.46501344,9.38589058 L9.46501344,9.38589058 C9.47907504,9.37666738 9.48965904,9.37001458 9.49994064,9.36290818 C9.88081341,9.095889 10.262291,8.82977702 10.6416518,8.56048984 C10.6874654,8.52798184 10.7192174,8.52737704 10.7654846,8.55610504 C10.8850837,8.63019303 11.0058925,8.70261783 11.1298765,8.76884342 C11.4287989,8.92866181 11.7511573,9.02361541 12.0798661,9.0986106 C12.1205389,9.1078338 12.1371709,9.1259778 12.1433701,9.1633242 C12.1869157,9.43064578 12.2307637,9.69781616 12.2750653,9.96498654 C12.3096901,10.1751545 12.3449196,10.3853225 12.3801492,10.5960953 L13.0176084,10.5960953 C13.0451268,10.4429297 13.0720404,10.2941489 13.0983492,10.1452169 C13.155654,9.81998575 13.2135636,9.49475457 13.2689028,9.169221 C13.27737,9.119325 13.30383,9.102693 13.3485852,9.0899922 C13.5407604,9.0355602 13.7344476,8.98445461 13.9228427,8.91868261 C14.1836627,8.82750902 14.4221051,8.68946343 14.6546507,8.54128744 C14.6809595,8.52450424 14.7028835,8.50923304 14.7390203,8.53508824 C15.0184379,8.73467222 15.3002747,8.93138341 15.5813554,9.1286994 C15.7030714,9.21412739 15.8249386,9.29925299 15.9398506,9.37954018 C16.0930162,9.22652579 16.2408898,9.079257 16.3904266,8.92987141 C16.388461,8.92624261 16.3855882,8.91807781 16.3807498,8.91127381 C16.1022394,8.52510904 15.8241826,8.13849066 15.5443114,7.75323309 C15.5180026,7.71724749 15.5142226,7.69184589 15.5390194,7.6525339 C15.6026746,7.5515323 15.661945,7.44765791 15.7203082,7.34348112 C15.8934322,7.03382354 16.0056226,6.70178836 16.0791058,6.35599398 C16.0899922,6.30549318 16.1084386,6.27585799 16.1648362,6.26663479 L16.5053386,6.20915989 L16.5053386,6.20915989 L17.5935249,6.017306 L17.5935249,6.017306 L17.5935249,5.38075405 C17.5211001,5.36971645 17.4535137,5.35988845 17.3862297,5.34885085 C16.9740585,5.28141565 16.5620386,5.21322446 16.149565,5.14669646 C16.112521,5.14064846 16.0967962,5.12794766 16.0881778,5.08893806 C15.9935266,4.66164689 15.8468626,4.25476772 15.6123514,3.88251334 C15.5783314,3.82838375 15.5195146,3.77107895 15.522085,3.71770536 C15.5248066,3.66145896 15.5872522,3.60808536 15.6238426,3.55335097 C15.6320074,3.54095257 15.6404746,3.52855417 15.649093,3.51630697 C15.8941882,3.16718619 16.1392834,2.81806541 16.3864954,2.46607184 L15.9634378,2.04346787 L15.9634378,2.04346787 C15.9345586,2.01413507 15.9164146,2.03091827 15.8929786,2.04770147 L14.7500579,2.87143901 L14.7500579,2.87143901 C14.7172475,2.89532861 14.6947187,2.89684061 14.6605475,2.87582381 C14.5442747,2.80445742 14.4276995,2.73339342 14.3079491,2.66807502 C14.0025251,2.50145264 13.6729092,2.40060224 13.3360356,2.32122225 C13.300806,2.31290625 13.27359,2.30443905 13.2666348,2.26104465 C13.2422916,2.10742546 13.2150756,1.95441107 13.1883132,1.80124548 C13.131462,1.4743511 13.0741572,1.14760792 13.0168524,0.820562346 Z M12.7832121,3.67123697 C13.8541617,3.70782737 14.7522896,4.59506891 14.7482211,5.71530964 C14.7441248,6.84991436 13.8178737,7.7463791 12.7056465,7.7498567 C11.556073,7.7421455 10.6227155,6.78172317 10.6718555,5.61793684 C10.7172155,4.54910411 11.627137,3.63162258 12.7832121,3.67123697 Z M12.7204641,4.48800882 C12.0344698,4.48529772 11.4965002,5.01192728 11.4889402,5.70109684 C11.4815314,6.37665839 12.0207106,6.93065516 12.6989937,6.93201862 C13.3822665,6.93337676 13.9297617,6.41264399 13.9317332,5.70956404 C13.9338441,5.00179689 13.3692633,4.49043852 12.7204641,4.48800882 Z" id="Combined-Shape"></path>
                        </g>
                    </g>
                </g>
            </g>
        </g>
    </g>
</svg>