<?xml version="1.0" encoding="UTF-8"?>
<svg width="18px" height="30px" viewBox="0 0 18 30" version="1.1" xmlns="http://www.w3.org/2000/svg" xmlns:xlink="http://www.w3.org/1999/xlink">
    <!-- Generator: Sketch 60 (88103) - https://sketch.com -->
    <title>Logo</title>
    <desc>Created with Sketch.</desc>
    <defs>
        <linearGradient x1="99.4086691%" y1="7.58217607%" x2="50%" y2="100%" id="linearGradient-1">
            <stop stop-color="#FFDF76" stop-opacity="0" offset="0%"></stop>
            <stop stop-color="#FFFFFF" stop-opacity="0.368143575" offset="100%"></stop>
        </linearGradient>
    </defs>
    <g id="Symbols" stroke="none" stroke-width="1" fill="none" fill-rule="evenodd">
        <g id="Logo/Mark-white-alt" transform="translate(-11.000000, -5.000000)">
            <g id="Logo" transform="translate(11.500000, 5.000000)">
                <path d="M15.5093333,15.4915595 L9.72810993,29.5070255 C9.66607721,29.6574119 9.51946208,29.7555332 9.35678408,29.7555332 L0.405212434,29.7555332 C0.183373163,29.7555332 0.00353690123,29.575697 0.00353690123,29.3538577 C0.00353690123,29.24385 0.0486548714,29.1386563 0.128358191,29.0628337 L14.8611532,15.0473677 C15.0218813,14.8944654 15.2761291,14.9008094 15.4290314,15.0615375 C15.5383513,15.1764525 15.5698138,15.3449362 15.5093333,15.4915595 Z" id="Triangle" fill="#0077FF" transform="translate(7.768888, 22.349712) scale(-1, -1) translate(-7.768888, -22.349712) "></path>
                <path d="M11.1501806,14.6914036 L8.17801551,22.0280697 C8.11422185,22.1855417 7.95825084,22.2858442 7.78850402,22.2785583 L3.5287077,22.0957195 C3.30707249,22.0862065 3.13511349,21.8988238 3.1446265,21.6771886 C3.14897161,21.5759559 3.19141557,21.4801055 3.26345187,21.4088475 L10.4954133,14.2550202 C10.653127,14.0990104 10.9074501,14.1003917 11.0634599,14.2581054 C11.1763541,14.3722327 11.2104552,14.5426182 11.1501806,14.6914036 Z" id="Triangle" fill="#0077FF" transform="translate(7.155998, 18.221044) scale(-1, -1) translate(-7.155998, -18.221044) "></path>
                <path d="M11.1521336,14.7332561 L8.18841806,22.0332862 C8.1247583,22.1900888 7.9696486,22.2901719 7.80054549,22.2835575 L3.52980446,22.1165084 C3.3081347,22.1078378 3.13546473,21.9211101 3.14413529,21.6994404 C3.14812506,21.5974389 3.19080044,21.5007829 3.2634895,21.4291134 L10.4979461,14.2961323 C10.6559141,14.1403801 10.9102347,14.1421763 11.0659869,14.3001443 C11.1786047,14.4143642 11.2124718,14.5846349 11.1521336,14.7332561 Z" id="Triangle" fill="url(#linearGradient-1)" transform="translate(7.156838, 18.244256) scale(-1, -1) translate(-7.156838, -18.244256) "></path>
                <path d="M11.1521336,14.7332561 L8.18841806,22.0332862 C8.1247583,22.1900888 7.9696486,22.2901719 7.80054549,22.2835575 L3.52980446,22.1165084 C3.3081347,22.1078378 3.13546473,21.9211101 3.14413529,21.6994404 C3.14812506,21.5974389 3.19080044,21.5007829 3.2634895,21.4291134 L10.4979461,14.2961323 C10.6559141,14.1403801 10.9102347,14.1421763 11.0659869,14.3001443 C11.1786047,14.4143642 11.2124718,14.5846349 11.1521336,14.7332561 Z" id="Triangle" fill="url(#linearGradient-1)" transform="translate(7.156838, 18.244256) scale(-1, -1) translate(-7.156838, -18.244256) "></path>
                <path d="M8.16384233,14.4149028 L1.9423113,14.4149028 C1.72047202,14.4149028 1.54063575,14.2350665 1.54063575,14.0132272 C1.54063575,13.9017612 1.58695393,13.7953074 1.66851191,13.7193273 L16.2561151,0.129403997 L16.2561151,0.129403997 C16.4166828,-0.0274372877 16.6767474,-0.0271758857 16.8369857,0.129987854 C16.9523224,0.243111625 16.9882506,0.412360325 16.9285007,0.561092404 L11.1466752,14.9534716 C11.1054204,15.056165 11.024101,15.135374 10.92435,15.1766721 L11.0331596,15.0699027 C11.1112005,14.9933251 11.1544247,14.8891986 11.1530683,14.7810448 C11.1502837,14.5590263 10.9641466,14.3812543 10.7373195,14.3839798 L8.16384233,14.4149028 Z" id="Path" fill="#0077FF"></path>
            </g>
        </g>
    </g>
</svg>