<svg width="35" height="35" viewBox="0 0 35 35" fill="none" xmlns="http://www.w3.org/2000/svg">
<path d="M26.8802 8.2198C26.3202 7.6598 25.4802 7.6598 24.9202 8.2198L17.5002 15.6398L10.0802 8.2198C9.5202 7.6598 8.6802 7.6598 8.1202 8.2198C7.5602 8.7798 7.5602 9.6198 8.1202 10.1798L15.5402 17.5998L8.1202 25.0198C7.5602 25.5798 7.5602 26.4198 8.1202 26.9798C8.4002 27.2598 8.6802 27.3998 9.1002 27.3998C9.5202 27.3998 9.8002 27.2598 10.0802 26.9798L17.5002 19.5598L24.9202 26.9798C25.2002 27.2598 25.6202 27.3998 25.9002 27.3998C26.1802 27.3998 26.6002 27.2598 26.8802 26.9798C27.4402 26.4198 27.4402 25.5798 26.8802 25.0198L19.4602 17.5998L26.8802 10.1798C27.4402 9.6198 27.4402 8.7798 26.8802 8.2198Z" fill="#002E58"/>
</svg>
