<?xml version="1.0" encoding="UTF-8"?>
<svg width="24px" height="24px" viewBox="0 0 24 24" version="1.1" xmlns="http://www.w3.org/2000/svg" xmlns:xlink="http://www.w3.org/1999/xlink">
    <!-- Generator: Sketch 60 (88103) - https://sketch.com -->
    <title>pie-chart</title>
    <desc>Created with Sketch.</desc>
    <g id="Symbols" stroke="none" stroke-width="1" fill="none" fill-rule="evenodd">
        <g id="UI/Left-Reporting-Static" transform="translate(-18.000000, -18.000000)" fill="#FFFFFF" fill-rule="nonzero">
            <g id="Group">
                <g id="pie-chart" transform="translate(18.000000, 18.000000)">
                    <path d="M22.8483397,5.9248243 C22.4027343,4.84904306 21.7595507,3.88628913 20.9367186,3.06328135 C20.1138866,2.24044934 19.1509569,1.59726575 18.0751757,1.15166027 C16.9993945,0.705879026 15.8636718,0.480000134 14.7,0.480000134 L13.8,0.480000134 L13.8,10.2 L23.5199999,10.2 L23.5199999,9.30000003 C23.5199999,8.13632817 23.294121,7.00060554 22.8483397,5.9248243 L22.8483397,5.9248243 Z M17.3061327,2.78625011 L15.6,4.49238288 L15.6,2.33906261 C16.1857031,2.41605482 16.7594531,2.56740246 17.3061327,2.78625011 Z M15.6,7.03804693 L18.934746,3.70330087 C19.1915624,3.89648447 19.435371,4.10759774 19.6638866,4.33611336 C19.8922264,4.56445321 20.1033398,4.80843758 20.2966991,5.06507821 L16.9619531,8.40000004 L15.6,8.40000004 L15.6,7.03804693 Z M19.5074413,8.40000004 L21.2135741,6.69386727 C21.4324218,7.24054693 21.5839452,7.81429692 21.6609374,8.40000004 L19.5074413,8.40000004 Z M12,2.28000011 L11.1,2.28000011 C8.26324225,2.28000011 5.59628911,3.38460947 3.59044933,5.39044931 C1.5846095,7.39628909 0.480000134,10.0632422 0.480000134,12.9 C0.480000134,15.7367577 1.5846095,18.4037109 3.59044933,20.4095507 C5.59628911,22.4153905 8.26324225,23.5199999 11.1,23.5199999 C13.9367578,23.5199999 16.6037109,22.4153905 18.6095507,20.4095507 C20.6153905,18.4037109 21.7199999,15.7367577 21.7199999,12.9 L21.7199999,12 L12,12 L12,2.28000011 Z M19.8744726,13.8 C19.4223632,18.2423437 15.6597656,21.7199999 11.1,21.7199999 C6.23666021,21.7199999 2.28000011,17.7633398 2.28000011,12.9 C2.28000011,8.34023442 5.75765632,4.57763682 10.2,4.12552745 L10.2,13.8 L19.8744726,13.8 Z" id="Shape"></path>
                </g>
            </g>
        </g>
    </g>
</svg>