<?xml version="1.0" encoding="UTF-8"?>
<svg width="103px" height="25px" viewBox="0 0 103 25" version="1.1" xmlns="http://www.w3.org/2000/svg" xmlns:xlink="http://www.w3.org/1999/xlink">
    <title>Logo/Full with Icon Blue</title>
    <defs>
        <linearGradient x1="99.4086691%" y1="7.58217607%" x2="50%" y2="100%" id="linearGradient-1">
            <stop stop-color="#FFDF76" stop-opacity="0" offset="0%"></stop>
            <stop stop-color="#FFFFFF" stop-opacity="0.368143575" offset="100%"></stop>
        </linearGradient>
    </defs>
    <g id="Logo/Full-with-Icon-Blue" stroke="none" stroke-width="1" fill="none" fill-rule="evenodd">
        <g id="Group-2" transform="translate(0.000000, 2.500000)">
            <g id="Logo">
                <path d="M10.9477647,10.9352185 L6.86690112,20.8284886 C6.82311332,20.9346437 6.71962029,21.0039058 6.60478876,21.0039058 L0.286032306,21.0039058 C0.12943988,21.0039058 0.00249663616,20.8769626 0.00249663616,20.7203701 C0.00249663616,20.6427177 0.0343446151,20.5684633 0.0906057821,20.5149414 L10.4902258,10.6216713 C10.6036809,10.5137403 10.7831499,10.5182184 10.891081,10.6316735 C10.968248,10.71279 10.9904568,10.8317197 10.9477647,10.9352185 Z" id="Triangle" fill="#0077FF" transform="translate(5.483921, 15.776267) scale(-1, -1) translate(-5.483921, -15.776267) "></path>
                <path d="M7.87071571,10.3704025 L5.77271683,15.5492257 C5.72768601,15.6603824 5.61758883,15.7311841 5.49776754,15.7260412 L2.49085249,15.5969785 C2.33440411,15.5902634 2.21302128,15.4579933 2.21973636,15.3015449 C2.22280349,15.2300865 2.25276393,15.1624274 2.30361308,15.1121277 L7.40852703,10.0623672 C7.51985435,9.95224265 7.69937656,9.9532177 7.80950111,10.064545 C7.88919113,10.1451054 7.9132625,10.2653775 7.87071571,10.3704025 Z" id="Triangle" fill="#0077FF" transform="translate(5.051292, 12.861913) scale(-1, -1) translate(-5.051292, -12.861913) "></path>
                <path d="M7.87209431,10.3999455 L5.78005981,15.5529079 C5.7351235,15.6635921 5.62563431,15.734239 5.50626741,15.72957 L2.49162668,15.611653 C2.3351539,15.6055326 2.21326922,15.4737248 2.21938962,15.317252 C2.22220592,15.245251 2.25232972,15.1770232 2.30363965,15.126433 L7.41031489,10.0913875 C7.52182173,9.98144475 7.70134211,9.98271268 7.81128488,10.0942195 C7.89077976,10.1748453 7.91468599,10.2950364 7.87209431,10.3999455 Z" id="Triangle" fill="url(#linearGradient-1)" transform="translate(5.051886, 12.878298) scale(-1, -1) translate(-5.051886, -12.878298) "></path>
                <path d="M7.87209431,10.3999455 L5.78005981,15.5529079 C5.7351235,15.6635921 5.62563431,15.734239 5.50626741,15.72957 L2.49162668,15.611653 C2.3351539,15.6055326 2.21326922,15.4737248 2.21938962,15.317252 C2.22220592,15.245251 2.25232972,15.1770232 2.30363965,15.126433 L7.41031489,10.0913875 C7.52182173,9.98144475 7.70134211,9.98271268 7.81128488,10.0942195 C7.89077976,10.1748453 7.91468599,10.2950364 7.87209431,10.3999455 Z" id="Triangle" fill="url(#linearGradient-1)" transform="translate(5.051886, 12.878298) scale(-1, -1) translate(-5.051886, -12.878298) "></path>
                <path d="M5.76271223,10.1752255 L1.37104327,10.1752255 C1.21445084,10.1752255 1.08750759,10.0482822 1.08750759,9.8916898 C1.08750759,9.81300791 1.12020277,9.73786402 1.17777311,9.68423105 L11.4749048,0.0913439976 L11.4749048,0.0913439976 C11.5882467,-0.0193674972 11.7718217,-0.0191829781 11.8849311,0.0917561325 C11.9663452,0.171608206 11.9917063,0.291077876 11.9495299,0.396065226 L7.86824131,10.5553917 C7.83912025,10.6278812 7.78171833,10.6837934 7.71130589,10.712945 L7.78811267,10.6375784 C7.84320033,10.5835236 7.87371158,10.5100225 7.87275406,10.4336787 C7.87078847,10.2769598 7.73939761,10.1514736 7.57928437,10.1533975 L5.76271223,10.1752255 Z" id="Path" fill="#0077FF"></path>
            </g>
        </g>
        <g id="Group-3" transform="translate(22.000000, 4.000000)" fill="#0077FF" fill-rule="nonzero">
            <path d="M1.94879988,11.9615993 L1.94879988,7.66079954 L3.62879978,7.66079954 L5.99759964,11.9615993 L8.18159951,11.9615993 L5.56079967,7.37519956 C6.87119959,6.92159959 7.74479954,5.91359965 7.74479954,4.23359975 C7.74479954,1.78079989 5.99759964,0.974399942 3.71279978,0.974399942 L0,0.974399942 L0,11.9615993 L1.94879988,11.9615993 Z M3.51119979,6.11519964 L1.94879988,6.11519964 L1.94879988,2.53679985 L3.51119979,2.53679985 C5.0063997,2.53679985 5.82959965,2.97359982 5.82959965,4.23359975 C5.82959965,5.47679967 5.0063997,6.11519964 3.51119979,6.11519964 Z M11.5871993,12.1631993 C12.5615993,12.1631993 13.4015992,11.6759993 14.1407992,11.0543993 L14.1911992,11.0543993 L14.3423991,11.9615993 L15.9215991,11.9615993 L15.9215991,7.07279958 C15.9215991,4.77119972 14.9135991,3.51119979 12.8471992,3.51119979 C11.5367993,3.51119979 10.3775994,4.01519976 9.47039944,4.58639973 L10.1759994,5.87999965 C10.8983994,5.44319968 11.6711993,5.0735997 12.4943993,5.0735997 C13.6031992,5.0735997 13.9727992,5.81279965 13.9895992,6.6863996 C10.6127994,7.05599958 9.13439946,7.97999952 9.13439946,9.74399942 C9.13439946,11.1887993 10.1423994,12.1631993 11.5871993,12.1631993 Z M12.1919993,10.6511994 C11.5031993,10.6511994 11.0159993,10.3319994 11.0159993,9.59279943 C11.0159993,8.76959948 11.7551993,8.18159951 13.9895992,7.89599953 L13.9895992,9.74399942 C13.3847992,10.3151994 12.8639992,10.6511994 12.1919993,10.6511994 Z M19.9655988,15.2207991 L19.9655988,12.6335992 L19.9151988,11.2559993 C20.5871988,11.8271993 21.3095987,12.1631993 22.0319987,12.1631993 C23.8631986,12.1631993 25.5599985,10.5335994 25.5599985,7.71119954 C25.5599985,5.15759969 24.3671985,3.51119979 22.3175987,3.51119979 C21.4103987,3.51119979 20.5199988,3.99839976 19.8311988,4.58639973 L19.7639988,4.58639973 L19.6295988,3.71279978 L18.0335989,3.71279978 L18.0335989,15.2207991 L19.9655988,15.2207991 Z M21.6287987,10.5671994 C21.1415987,10.5671994 20.5703988,10.3823994 19.9655988,9.87839941 L19.9655988,6.03119964 C20.6039988,5.40959968 21.1751987,5.1071997 21.7799987,5.1071997 C23.0231986,5.1071997 23.5607986,6.08159964 23.5607986,7.72799954 C23.5607986,9.59279943 22.7207986,10.5671994 21.6287987,10.5671994 Z M28.2431983,2.26799986 C28.9319983,2.26799986 29.4359982,1.81439989 29.4359982,1.17599993 C29.4359982,0.520799969 28.9319983,0.067199996 28.2431983,0.067199996 C27.5543984,0.067199996 27.0503984,0.520799969 27.0503984,1.17599993 C27.0503984,1.81439989 27.5543984,2.26799986 28.2431983,2.26799986 Z M29.2007983,11.9615993 L29.2007983,3.71279978 L27.2687984,3.71279978 L27.2687984,11.9615993 L29.2007983,11.9615993 Z M34.319998,12.1631993 C35.2103979,12.1631993 36.0503979,11.6759993 36.6551978,11.0711993 L36.7223978,11.0711993 L36.8567978,11.9615993 L38.4527977,11.9615993 L38.4527977,0.100799994 L36.5207978,0.100799994 L36.5207978,3.09119982 L36.5879978,4.41839974 C35.9495979,3.86399977 35.3615979,3.51119979 34.4207979,3.51119979 C32.6231981,3.51119979 30.9263982,5.15759969 30.9263982,7.84559953 C30.9263982,10.5671994 32.2535981,12.1631993 34.319998,12.1631993 Z M34.7903979,10.5671994 C33.597598,10.5671994 32.925598,9.60959943 32.925598,7.82879953 C32.925598,6.09839964 33.782398,5.1071997 34.8407979,5.1071997 C35.3951979,5.1071997 35.9495979,5.29199968 36.5207978,5.79599965 L36.5207978,9.64319943 C35.9663979,10.2815994 35.4287979,10.5671994 34.7903979,10.5671994 Z M44.0087974,12.1631993 C46.3271972,12.1631993 47.7551972,10.7687994 47.7551972,9.02159946 C47.7551972,7.39199956 46.7639972,6.6359996 45.4871973,6.08159964 L43.9247974,5.40959968 C43.0511974,5.0399997 42.0935975,4.63679972 42.0935975,3.57839979 C42.0935975,2.58719985 42.9167974,1.96559988 44.1431974,1.96559988 C45.1679973,1.96559988 45.9743973,2.36879986 46.6463972,3.00719982 L47.4023972,2.09999987 C46.6127972,1.29359992 45.4535973,0.739199956 44.1431974,0.739199956 C42.1439975,0.739199956 40.6823976,1.98239988 40.6823976,3.66239978 C40.6823976,5.27519969 41.8751975,6.06479964 42.9167974,6.50159961 L44.4959973,7.19039957 C45.5375973,7.66079954 46.3271972,8.01359952 46.3271972,9.13919946 C46.3271972,10.2143994 45.4703973,10.9367993 44.0255974,10.9367993 C42.8831974,10.9367993 41.7743975,10.3823994 40.9847976,9.55919943 L40.1447976,10.5335994 C41.1023976,11.5247993 42.4631975,12.1631993 44.0087974,12.1631993 Z M50.908797,11.9615993 L50.908797,9.81119942 L52.4375969,8.03039952 L54.8231967,11.9615993 L56.3351966,11.9615993 L53.2271968,7.07279958 L55.9655967,3.79679977 L54.4367968,3.79679977 L50.959197,8.09759952 L50.908797,8.09759952 L50.908797,-4.54747324e-14 L49.547997,-4.54747324e-14 L49.547997,11.9615993 L50.908797,11.9615993 Z M58.3295965,2.11679987 C58.8671965,2.11679987 59.2871965,1.7471999 59.2871965,1.22639993 C59.2871965,0.688799959 58.8671965,0.33599998 58.3295965,0.33599998 C57.7919966,0.33599998 57.3719966,0.688799959 57.3719966,1.22639993 C57.3719966,1.7471999 57.7919966,2.11679987 58.3295965,2.11679987 Z M59.0015965,11.9615993 L59.0015965,3.79679977 L57.6239966,3.79679977 L57.6239966,11.9615993 L59.0015965,11.9615993 Z M62.9783962,12.1631993 C63.3479962,12.1631993 63.5831962,12.1127993 63.7679962,12.0287993 L63.5831962,10.9871993 C63.4319962,11.0207993 63.3647962,11.0207993 63.2807962,11.0207993 C63.0791962,11.0207993 62.8943963,10.8527994 62.8943963,10.4159994 L62.8943963,-4.54747324e-14 L61.5167963,-4.54747324e-14 L61.5167963,10.3151994 C61.5167963,11.5079993 61.9367963,12.1631993 62.9783962,12.1631993 Z M67.022396,12.1631993 C67.391996,12.1631993 67.627196,12.1127993 67.811996,12.0287993 L67.627196,10.9871993 C67.475996,11.0207993 67.408796,11.0207993 67.324796,11.0207993 C67.123196,11.0207993 66.938396,10.8527994 66.938396,10.4159994 L66.938396,-4.54747324e-14 L65.5607961,-4.54747324e-14 L65.5607961,10.3151994 C65.5607961,11.5079993 65.9807961,12.1631993 67.022396,12.1631993 Z M71.7383957,12.1631993 C73.6703956,12.1631993 74.7287955,11.0543993 74.7287955,9.72719942 C74.7287955,8.18159951 73.4183956,7.69439954 72.2423957,7.25759957 C71.3183957,6.90479959 70.4279958,6.61919961 70.4279958,5.84639965 C70.4279958,5.22479969 70.8983958,4.67039972 71.9231957,4.67039972 C72.6455957,4.67039972 73.2335956,4.9727997 73.7879956,5.39279968 L74.4431956,4.51919973 C73.8215956,4.01519976 72.9311957,3.59519979 71.9063957,3.59519979 C70.1423958,3.59519979 69.1007959,4.60319973 69.1007959,5.91359965 C69.1007959,7.29119957 70.3775958,7.84559953 71.5367957,8.26559951 C72.4271957,8.60159949 73.4015956,8.97119947 73.4015956,9.81119942 C73.4015956,10.5167994 72.8639957,11.0879993 71.7887957,11.0879993 C70.8143958,11.0879993 70.0919958,10.6847994 69.3863959,10.1135994 L68.6975959,11.0375993 C69.4703959,11.6759993 70.5791958,12.1631993 71.7383957,12.1631993 Z" id="RapidSkills"></path>
            <path d="M35.6231979,20.8127988 C36.4082645,20.8127988 37.0226645,20.5653321 37.4663978,20.0703988 L37.4663978,20.0703988 L37.4663978,18.4831989 L36.4615978,18.4831989 L36.4615978,19.7119988 C36.2311978,19.8442655 35.9431979,19.9103988 35.5975979,19.9103988 C35.2519979,19.9103988 34.9543979,19.7834655 34.7047979,19.5295988 C34.4551979,19.2757322 34.330398,18.9375989 34.330398,18.5151989 C34.330398,18.0927989 34.4605313,17.7525323 34.7207979,17.494399 C34.9810646,17.2362656 35.3010646,17.107199 35.6807979,17.107199 C35.8770645,17.107199 36.0594645,17.1402656 36.2279978,17.206399 C36.3965312,17.2725323 36.5810645,17.3930656 36.7815978,17.567999 L36.7815978,17.567999 L37.299998,16.819199 C36.8263978,16.396799 36.2685312,16.185599 35.6263979,16.185599 C34.9842646,16.185599 34.4359979,16.4074657 33.981598,16.851199 C33.527198,17.2949323 33.299998,17.8485323 33.299998,18.5119989 C33.299998,19.1754655 33.5229313,19.7247988 33.968798,20.1599988 C34.4146646,20.5951988 34.9661312,20.8127988 35.6231979,20.8127988 Z M42.4519975,20.7615988 L42.4519975,19.8783988 L40.1543976,19.8783988 L40.1543976,18.9503989 L42.1575975,18.9503989 L42.1575975,18.0991989 L40.1543976,18.0991989 L40.1543976,17.177599 L42.3815975,17.177599 L42.3815975,16.287999 L39.1559977,16.287999 L39.1559977,20.7615988 L42.4519975,20.7615988 Z M45.1399973,20.7615988 L45.1399973,17.9583989 L47.2711972,20.7615988 L48.2695971,20.7615988 L48.2695971,16.287999 L47.2711972,16.287999 L47.2711972,19.1679989 L45.0759973,16.287999 L44.1415974,16.287999 L44.1415974,20.7615988 L45.1399973,20.7615988 Z M53.4663968,20.7615988 L53.4663968,19.8783988 L51.168797,19.8783988 L51.168797,18.9503989 L53.1719968,18.9503989 L53.1719968,18.0991989 L51.168797,18.0991989 L51.168797,17.177599 L53.3959968,17.177599 L53.3959968,16.287999 L50.170397,16.287999 L50.170397,20.7615988 L53.4663968,20.7615988 Z M56.1543967,20.7615988 L56.1543967,19.3343988 L56.8455966,19.3343988 L57.8375966,20.7615988 L59.0663965,20.7615988 L57.9335965,19.1615989 C58.5010632,18.9525322 58.7847965,18.4895989 58.7847965,17.7727989 C58.7847965,17.2522656 58.6365298,16.8746657 58.3399965,16.639999 C58.0434632,16.4053324 57.5474632,16.287999 56.8519966,16.287999 L56.8519966,16.287999 L55.1559967,16.287999 L55.1559967,20.7615988 L56.1543967,20.7615988 Z M56.8839966,18.4703989 L56.1543967,18.4703989 L56.1543967,17.145599 L56.9031966,17.145599 C57.2231966,17.145599 57.4471966,17.190399 57.5751966,17.279999 C57.7031966,17.369599 57.7671966,17.5349323 57.7671966,17.7759989 C57.7671966,18.0170656 57.7053299,18.1930656 57.5815966,18.3039989 C57.4578632,18.4149322 57.2253299,18.4703989 56.8839966,18.4703989 L56.8839966,18.4703989 Z M61.0887964,20.7615988 L61.5047963,19.7951988 L63.3799962,19.7951988 L63.7959962,20.7615988 L64.8583961,20.7615988 L62.9255962,16.287999 L61.9591963,16.287999 L60.0263964,20.7615988 L61.0887964,20.7615988 Z M63.0023962,18.9183989 L61.8823963,18.9183989 L62.4455963,17.6191989 L63.0023962,18.9183989 Z M67.744796,20.7615988 L67.744796,17.151999 L69.0119959,17.151999 L69.0119959,16.287999 L65.4791961,16.287999 L65.4791961,17.151999 L66.746396,17.151999 L66.746396,20.7615988 L67.744796,20.7615988 Z M72.5127957,20.8063988 C73.174129,20.8063988 73.7309289,20.5866654 74.1831956,20.1471988 C74.6354622,19.7034655 74.8615955,19.1530655 74.8615955,18.4959989 C74.8615955,17.8389323 74.6354622,17.289599 74.1831956,16.847999 C73.7309289,16.406399 73.174129,16.185599 72.5127957,16.185599 C71.8514624,16.185599 71.2946624,16.406399 70.8423958,16.847999 C70.3901291,17.289599 70.1639958,17.8389323 70.1639958,18.4959989 C70.1639958,19.1530655 70.3901291,19.7023988 70.8423958,20.1439988 C71.2946624,20.5855988 71.8514624,20.8063988 72.5127957,20.8063988 Z M72.5159957,19.9359988 C72.1426624,19.9359988 71.8279957,19.7962655 71.5719957,19.5167988 C71.3159957,19.2373322 71.1879958,18.8981322 71.1879958,18.4991989 C71.1879958,18.1002656 71.3159957,17.7599989 71.5719957,17.478399 C71.8279957,17.196799 72.1426624,17.055999 72.5159957,17.055999 C72.889329,17.055999 73.2039956,17.196799 73.4599956,17.478399 C73.7159956,17.7599989 73.8439956,18.1013323 73.8439956,18.5023989 C73.8439956,18.8991989 73.7159956,19.2373322 73.4599956,19.5167988 C73.2039956,19.7962655 72.889329,19.9359988 72.5159957,19.9359988 Z M77.5047954,20.7615988 L77.5047954,19.3343988 L78.1959953,19.3343988 L79.1879953,20.7615988 L80.4167952,20.7615988 L79.2839953,19.1615989 C79.8514619,18.9525322 80.1351952,18.4895989 80.1351952,17.7727989 C80.1351952,17.2522656 79.9869286,16.8746657 79.6903953,16.639999 C79.3938619,16.4053324 78.897862,16.287999 78.2023953,16.287999 L78.2023953,16.287999 L76.5063954,16.287999 L76.5063954,20.7615988 L77.5047954,20.7615988 Z M78.2343953,18.4703989 L77.5047954,18.4703989 L77.5047954,17.145599 L78.2535953,17.145599 C78.5735953,17.145599 78.7975953,17.190399 78.9255953,17.279999 C79.0535953,17.369599 79.1175953,17.5349323 79.1175953,17.7759989 C79.1175953,18.0170656 79.0557286,18.1930656 78.9319953,18.3039989 C78.808262,18.4149322 78.5757286,18.4703989 78.2343953,18.4703989 L78.2343953,18.4703989 Z" id="GENERATOR"></path>
        </g>
    </g>
</svg>