<?xml version="1.0" encoding="UTF-8"?>
<svg width="121px" height="26px" viewBox="0 0 121 26" version="1.1" xmlns="http://www.w3.org/2000/svg" xmlns:xlink="http://www.w3.org/1999/xlink">
    <title>Logo/Alt Full no Icon</title>
    <g id="Logo/Alt-Full-no-Icon" stroke="none" stroke-width="1" fill="none" fill-rule="evenodd">
        <g id="Group-3" fill="#0077FF" fill-rule="nonzero">
            <path d="M2.436,14.952 L2.436,9.576 L4.536,9.576 L7.497,14.952 L10.227,14.952 L6.951,9.219 C8.589,8.652 9.681,7.392 9.681,5.292 C9.681,2.226 7.497,1.218 4.641,1.218 L0,1.218 L0,14.952 L2.436,14.952 Z M4.389,7.644 L2.436,7.644 L2.436,3.171 L4.389,3.171 C6.258,3.171 7.287,3.717 7.287,5.292 C7.287,6.846 6.258,7.644 4.389,7.644 Z M14.484,15.204 C15.702,15.204 16.752,14.595 17.676,13.818 L17.739,13.818 L17.928,14.952 L19.902,14.952 L19.902,8.841 C19.902,5.964 18.642,4.389 16.059,4.389 C14.421,4.389 12.972,5.019 11.838,5.733 L12.72,7.35 C13.623,6.804 14.589,6.342 15.618,6.342 C17.004,6.342 17.466,7.266 17.487,8.358 C13.266,8.82 11.418,9.975 11.418,12.18 C11.418,13.986 12.678,15.204 14.484,15.204 Z M15.24,13.314 C14.379,13.314 13.77,12.915 13.77,11.991 C13.77,10.962 14.694,10.227 17.487,9.87 L17.487,12.18 C16.731,12.894 16.08,13.314 15.24,13.314 Z M24.957,19.026 L24.957,15.792 L24.894,14.07 C25.734,14.784 26.637,15.204 27.54,15.204 C29.829,15.204 31.95,13.167 31.95,9.639 C31.95,6.447 30.459,4.389 27.897,4.389 C26.763,4.389 25.65,4.998 24.789,5.733 L24.705,5.733 L24.537,4.641 L22.542,4.641 L22.542,19.026 L24.957,19.026 Z M27.036,13.209 C26.427,13.209 25.713,12.978 24.957,12.348 L24.957,7.539 C25.755,6.762 26.469,6.384 27.225,6.384 C28.779,6.384 29.451,7.602 29.451,9.66 C29.451,11.991 28.401,13.209 27.036,13.209 Z M35.304,2.835 C36.165,2.835 36.795,2.268 36.795,1.47 C36.795,0.651 36.165,0.084 35.304,0.084 C34.443,0.084 33.813,0.651 33.813,1.47 C33.813,2.268 34.443,2.835 35.304,2.835 Z M36.501,14.952 L36.501,4.641 L34.086,4.641 L34.086,14.952 L36.501,14.952 Z M42.9,15.204 C44.013,15.204 45.063,14.595 45.819,13.839 L45.903,13.839 L46.071,14.952 L48.066,14.952 L48.066,0.126 L45.651,0.126 L45.651,3.864 L45.735,5.523 C44.937,4.83 44.202,4.389 43.026,4.389 C40.779,4.389 38.658,6.447 38.658,9.807 C38.658,13.209 40.317,15.204 42.9,15.204 Z M43.488,13.209 C41.997,13.209 41.157,12.012 41.157,9.786 C41.157,7.623 42.228,6.384 43.551,6.384 C44.244,6.384 44.937,6.615 45.651,7.245 L45.651,12.054 C44.958,12.852 44.286,13.209 43.488,13.209 Z M55.011,15.204 C57.909,15.204 59.694,13.461 59.694,11.277 C59.694,9.24 58.455,8.295 56.859,7.602 L54.906,6.762 C53.814,6.3 52.617,5.796 52.617,4.473 C52.617,3.234 53.646,2.457 55.179,2.457 C56.46,2.457 57.468,2.961 58.308,3.759 L59.253,2.625 C58.266,1.617 56.817,0.924 55.179,0.924 C52.68,0.924 50.853,2.478 50.853,4.578 C50.853,6.594 52.344,7.581 53.646,8.127 L55.62,8.988 C56.922,9.576 57.909,10.017 57.909,11.424 C57.909,12.768 56.838,13.671 55.032,13.671 C53.604,13.671 52.218,12.978 51.231,11.949 L50.181,13.167 C51.378,14.406 53.079,15.204 55.011,15.204 Z M63.636,14.952 L63.636,12.264 L65.547,10.038 L68.529,14.952 L70.419,14.952 L66.534,8.841 L69.957,4.746 L68.046,4.746 L63.699,10.122 L63.636,10.122 L63.636,-5.68434189e-14 L61.935,-5.68434189e-14 L61.935,14.952 L63.636,14.952 Z M72.912,2.646 C73.584,2.646 74.109,2.184 74.109,1.533 C74.109,0.861 73.584,0.42 72.912,0.42 C72.24,0.42 71.715,0.861 71.715,1.533 C71.715,2.184 72.24,2.646 72.912,2.646 Z M73.752,14.952 L73.752,4.746 L72.03,4.746 L72.03,14.952 L73.752,14.952 Z M78.723,15.204 C79.185,15.204 79.479,15.141 79.71,15.036 L79.479,13.734 C79.29,13.776 79.206,13.776 79.101,13.776 C78.849,13.776 78.618,13.566 78.618,13.02 L78.618,-5.68434189e-14 L76.896,-5.68434189e-14 L76.896,12.894 C76.896,14.385 77.421,15.204 78.723,15.204 Z M83.778,15.204 C84.24,15.204 84.534,15.141 84.765,15.036 L84.534,13.734 C84.345,13.776 84.261,13.776 84.156,13.776 C83.904,13.776 83.673,13.566 83.673,13.02 L83.673,-5.68434189e-14 L81.951,-5.68434189e-14 L81.951,12.894 C81.951,14.385 82.476,15.204 83.778,15.204 Z M89.673,15.204 C92.088,15.204 93.411,13.818 93.411,12.159 C93.411,10.227 91.773,9.618 90.303,9.072 C89.148,8.631 88.035,8.274 88.035,7.308 C88.035,6.531 88.623,5.838 89.904,5.838 C90.807,5.838 91.542,6.216 92.235,6.741 L93.054,5.649 C92.277,5.019 91.164,4.494 89.883,4.494 C87.678,4.494 86.376,5.754 86.376,7.392 C86.376,9.114 87.972,9.807 89.421,10.332 C90.534,10.752 91.752,11.214 91.752,12.264 C91.752,13.146 91.08,13.86 89.736,13.86 C88.518,13.86 87.615,13.356 86.733,12.642 L85.872,13.797 C86.838,14.595 88.224,15.204 89.673,15.204 Z" id="RapidSkills"></path>
            <path d="M44.529,26.016 C45.5103333,26.016 46.2783333,25.7066667 46.833,25.088 L46.833,25.088 L46.833,23.104 L45.577,23.104 L45.577,24.64 C45.289,24.8053333 44.929,24.888 44.497,24.888 C44.065,24.888 43.693,24.7293333 43.381,24.412 C43.069,24.0946667 42.913,23.672 42.913,23.144 C42.913,22.616 43.0756667,22.1906667 43.401,21.868 C43.7263333,21.5453333 44.1263333,21.384 44.601,21.384 C44.8463333,21.384 45.0743333,21.4253333 45.285,21.508 C45.4956667,21.5906667 45.7263333,21.7413333 45.977,21.96 L45.977,21.96 L46.625,21.024 C46.033,20.496 45.3356667,20.232 44.533,20.232 C43.7303333,20.232 43.045,20.5093333 42.477,21.064 C41.909,21.6186667 41.625,22.3106667 41.625,23.14 C41.625,23.9693333 41.9036667,24.656 42.461,25.2 C43.0183333,25.744 43.7076667,26.016 44.529,26.016 Z M53.065,25.952 L53.065,24.848 L50.193,24.848 L50.193,23.688 L52.697,23.688 L52.697,22.624 L50.193,22.624 L50.193,21.472 L52.977,21.472 L52.977,20.36 L48.945,20.36 L48.945,25.952 L53.065,25.952 Z M56.425,25.952 L56.425,22.448 L59.089,25.952 L60.337,25.952 L60.337,20.36 L59.089,20.36 L59.089,23.96 L56.345,20.36 L55.177,20.36 L55.177,25.952 L56.425,25.952 Z M66.833,25.952 L66.833,24.848 L63.961,24.848 L63.961,23.688 L66.465,23.688 L66.465,22.624 L63.961,22.624 L63.961,21.472 L66.745,21.472 L66.745,20.36 L62.713,20.36 L62.713,25.952 L66.833,25.952 Z M70.193,25.952 L70.193,24.168 L71.057,24.168 L72.297,25.952 L73.833,25.952 L72.417,23.952 C73.1263333,23.6906667 73.481,23.112 73.481,22.216 C73.481,21.5653333 73.2956667,21.0933333 72.925,20.8 C72.5543333,20.5066667 71.9343333,20.36 71.065,20.36 L71.065,20.36 L68.945,20.36 L68.945,25.952 L70.193,25.952 Z M71.105,23.088 L70.193,23.088 L70.193,21.432 L71.129,21.432 C71.529,21.432 71.809,21.488 71.969,21.6 C72.129,21.712 72.209,21.9186667 72.209,22.22 C72.209,22.5213333 72.1316667,22.7413333 71.977,22.88 C71.8223333,23.0186667 71.5316667,23.088 71.105,23.088 L71.105,23.088 Z M76.361,25.952 L76.881,24.744 L79.225,24.744 L79.745,25.952 L81.073,25.952 L78.657,20.36 L77.449,20.36 L75.033,25.952 L76.361,25.952 Z M78.753,23.648 L77.353,23.648 L78.057,22.024 L78.753,23.648 Z M84.681,25.952 L84.681,21.44 L86.265,21.44 L86.265,20.36 L81.849,20.36 L81.849,21.44 L83.433,21.44 L83.433,25.952 L84.681,25.952 Z M90.641,26.008 C91.4676667,26.008 92.1636667,25.7333333 92.729,25.184 C93.2943333,24.6293333 93.577,23.9413333 93.577,23.12 C93.577,22.2986667 93.2943333,21.612 92.729,21.06 C92.1636667,20.508 91.4676667,20.232 90.641,20.232 C89.8143333,20.232 89.1183333,20.508 88.553,21.06 C87.9876667,21.612 87.705,22.2986667 87.705,23.12 C87.705,23.9413333 87.9876667,24.628 88.553,25.18 C89.1183333,25.732 89.8143333,26.008 90.641,26.008 Z M90.645,24.92 C90.1783333,24.92 89.785,24.7453333 89.465,24.396 C89.145,24.0466667 88.985,23.6226667 88.985,23.124 C88.985,22.6253333 89.145,22.2 89.465,21.848 C89.785,21.496 90.1783333,21.32 90.645,21.32 C91.1116667,21.32 91.505,21.496 91.825,21.848 C92.145,22.2 92.305,22.6266667 92.305,23.128 C92.305,23.624 92.145,24.0466667 91.825,24.396 C91.505,24.7453333 91.1116667,24.92 90.645,24.92 Z M96.881,25.952 L96.881,24.168 L97.745,24.168 L98.985,25.952 L100.521,25.952 L99.105,23.952 C99.8143333,23.6906667 100.169,23.112 100.169,22.216 C100.169,21.5653333 99.9836667,21.0933333 99.613,20.8 C99.2423333,20.5066667 98.6223333,20.36 97.753,20.36 L97.753,20.36 L95.633,20.36 L95.633,25.952 L96.881,25.952 Z M97.793,23.088 L96.881,23.088 L96.881,21.432 L97.817,21.432 C98.217,21.432 98.497,21.488 98.657,21.6 C98.817,21.712 98.897,21.9186667 98.897,22.22 C98.897,22.5213333 98.8196667,22.7413333 98.665,22.88 C98.5103333,23.0186667 98.2196667,23.088 97.793,23.088 L97.793,23.088 Z" id="GENERATOR"></path>
        </g>
    </g>
</svg>