<?xml version="1.0" encoding="UTF-8"?>
<svg width="79px" height="78px" viewBox="0 0 79 78" version="1.1" xmlns="http://www.w3.org/2000/svg" xmlns:xlink="http://www.w3.org/1999/xlink">
    <!-- Generator: Sketch 59.1 (86144) - https://sketch.com -->
    <title>Icon</title>
    <desc>Created with Sketch.</desc>
    <defs>
        <path d="M60.6521586,10.2317905 C42.6521586,-7.54863177 27.3200407,0.537677283 24.6521586,14.0838212 C21.9842765,27.6299652 -2.79876327,30.3346666 0.261187502,46.3346666 C3.32113827,62.3346666 36.6521586,52.8346666 36.6521586,67.3346666 C36.6521586,81.8346666 75.1895892,81.3346666 75.1895892,62.3346666 C75.1895892,43.3346666 78.6521586,28.0122127 60.6521586,10.2317905 Z" id="path-1"></path>
    </defs>
    <g id="LP" stroke="none" stroke-width="1" fill="none" fill-rule="evenodd">
        <g id="RapidSkills-Beta-LP" transform="translate(-682.000000, -1858.000000)">
            <g id="Features/Benefits" transform="translate(231.000000, 1122.000000)">
                <g id="Service-5" transform="translate(336.000000, 706.000000)">
                    <g id="Icon" transform="translate(115.000000, 30.000000)">
                        <g id="Ornament/bgicon">
                            <mask id="mask-2" fill="white">
                                <use xlink:href="#path-1"></use>
                            </mask>
                            <use id="bgicon" fill-opacity="0.2" fill="#FFFFFF" fill-rule="evenodd" xlink:href="#path-1"></use>
                            <g id="Color/Primary" opacity="0.2" mask="url(#mask-2)" fill="#459EFF" fill-rule="evenodd">
                                <rect id="Rectangle" x="0" y="0" width="76" height="78"></rect>
                            </g>
                        </g>
                        <g id="file" transform="translate(11.759998, 4.759998)" fill-rule="nonzero">
                            <path d="M62.9959068,41.5667828 C59.1006052,37.6714812 53.3560414,36.7260095 48.5619145,38.7286691 L48.5619145,15.632426 C48.5619145,14.6767627 48.1897885,13.7783293 47.5141343,13.1026751 L35.460546,1.04764955 C35.1784463,0.765680512 34.8500922,0.535323047 34.4939071,0.362587614 C34.4931231,0.362195628 34.4923391,0.361803641 34.4915551,0.361411654 C34.4752224,0.35344126 34.4588896,0.345470866 34.4424261,0.337761796 C34.4111979,0.322474318 34.379447,0.308232138 34.3469121,0.295557904 C33.9017459,0.103615127 33.4184265,0 32.9294885,0 L3.88981379,0 C1.80483702,0 0.108449629,1.69625672 0.108449629,3.78136417 L0.108449629,63.1882415 C0.108449629,65.273349 1.80470635,66.9696057 3.88968313,66.9696057 L44.7804197,66.9696057 C46.7769381,66.9696057 48.4351722,65.408715 48.5555121,63.4159858 C48.5572107,63.3897227 48.5579946,63.3634596 48.5579946,63.3371965 L48.5579946,63.0663337 C50.1869603,63.7474758 51.9254209,64.0888961 53.6642735,64.0888961 C57.0437208,64.0888961 60.423168,62.8025267 62.9959068,60.2299186 C65.488419,57.7372757 66.8611561,54.4232903 66.8611561,50.8982854 C66.8611561,47.3732804 65.488419,44.059295 62.9959068,41.5667828 L62.9959068,41.5667828 Z M44.1008456,13.3849054 L35.4664258,13.3849054 C35.3070179,13.3849054 35.1772704,13.2551579 35.1772704,13.09575 L35.1772704,4.46041564 L44.1008456,13.3849054 Z M45.9447506,63.29055 C45.8920937,63.8908122 45.3866923,64.3563616 44.7805503,64.3563616 L3.88981379,64.3563616 C3.24564913,64.3563616 2.72182436,63.8324062 2.72182436,63.1882415 L2.72182436,3.78136417 C2.72182436,3.1371995 3.24577979,2.61324407 3.88981379,2.61324407 L32.564157,2.61324407 L32.564157,13.09575 C32.564157,14.6961007 33.8662058,15.9981495 35.4665565,15.9981495 L45.9488011,15.9981495 L45.9488011,40.1915631 C45.3827724,40.5998825 44.8418309,41.0577228 44.332771,41.5667828 C41.8402588,44.0594256 40.4675217,47.3734111 40.4675217,50.898416 C40.4675217,54.4234209 41.8402588,57.7374064 44.332771,60.2300493 C44.8406549,60.7379332 45.3802898,61.194859 45.9448812,61.6023944 L45.9448812,63.29055 L45.9447506,63.29055 Z M61.1479512,58.3820937 C57.0213775,62.5086674 50.3070389,62.5086674 46.1804652,58.3820937 C44.1814641,56.3830927 43.0805044,53.7252928 43.0805044,50.898416 C43.0805044,48.0715393 44.1814641,45.4136087 46.1804652,43.4147383 C48.243752,41.3514515 50.9539475,40.3197427 53.6641429,40.3197427 C56.3743383,40.3197427 59.0845337,41.3514515 61.1478206,43.4147383 C63.1468216,45.4137394 64.2477814,48.0715393 64.2477814,50.898416 C64.2477814,53.7252928 63.1469523,56.3830927 61.1479512,58.3820937 Z" id="Shape" stroke="#333333" stroke-width="0.25" fill="#333333"></path>
                            <path d="M56.4187635,51.9525987 L54.9795193,53.3977226 L54.9795193,45.601109 C54.9795193,44.8794616 54.3944139,44.2944869 53.6728972,44.2944869 C52.9513806,44.2944869 52.3662752,44.8794616 52.3662752,45.601109 L52.3662752,53.4098742 L50.9309509,51.9565185 C50.4235896,51.4430161 49.5966285,51.4380509 49.0829954,51.9450203 C48.5696236,52.4521203 48.5643971,53.2793427 49.0714971,53.7928451 L52.7278175,57.4948974 C52.9726785,57.7427636 53.3063898,57.8827028 53.6548659,57.8833561 L53.6576098,57.8833561 C53.6603537,57.8833561 53.6630976,57.8829641 53.6659722,57.8829641 C53.6683241,57.8829641 53.6705453,57.8833561 53.6728972,57.8833561 C54.0916696,57.8833561 54.4634036,57.6856642 54.7025154,57.3792613 L58.2705082,53.796765 C58.7795681,53.2854838 58.7780002,52.4581307 58.266719,51.9489401 C57.7553071,51.4396189 56.9280847,51.4413175 56.4187635,51.9525987 L56.4187635,51.9525987 Z" id="Path" fill="#0073FF"></path>
                            <path d="M9.31582311,20.824942 L27.5318329,20.824942 C28.2533496,20.824942 28.8384549,20.2399673 28.8384549,19.5183199 C28.8384549,18.7966726 28.2533496,18.2116979 27.5318329,18.2116979 L9.31582311,18.2116979 C8.59430643,18.2116979 8.00920108,18.7966726 8.00920108,19.5183199 C8.00920108,20.2399673 8.59417576,20.824942 9.31582311,20.824942 Z" id="Path" stroke="#0073FF" stroke-width="0.5" fill="#0073FF"></path>
                            <path d="M32.0750883,41.7201802 L9.31582311,41.7201802 C8.59430643,41.7201802 8.00920108,42.3051549 8.00920108,43.0268022 C8.00920108,43.7484496 8.59430643,44.3334243 9.31582311,44.3334243 L32.075219,44.3334243 C32.7967357,44.3334243 33.381841,43.7484496 33.381841,43.0268022 C33.381841,42.3051549 32.7967357,41.7201802 32.0750883,41.7201802 Z" id="Path" stroke="#0073FF" stroke-width="0.5" fill="#0073FF"></path>
                            <path d="M32.0750883,49.5563845 L9.31582311,49.5563845 C8.59430643,49.5563845 8.00920108,50.1413592 8.00920108,50.8630066 C8.00920108,51.5846539 8.59430643,52.1696286 9.31582311,52.1696286 L32.075219,52.1696286 C32.7967357,52.1696286 33.381841,51.5846539 33.381841,50.8630066 C33.381841,50.1413592 32.7967357,49.5563845 32.0750883,49.5563845 Z" id="Path" stroke="#0073FF" stroke-width="0.5" fill="#0073FF"></path>
                            <path d="M39.4220934,33.8841065 L9.31582311,33.8841065 C8.59430643,33.8841065 8.00920108,34.4690812 8.00920108,35.1907286 C8.00920108,35.9123759 8.59430643,36.4973506 9.31582311,36.4973506 L39.4220934,36.4973506 C40.1436101,36.4973506 40.7287154,35.9123759 40.7287154,35.1907286 C40.7287154,34.4690812 40.1436101,33.8841065 39.4220934,33.8841065 Z" id="Path" stroke="#0073FF" stroke-width="0.5" fill="#0073FF"></path>
                            <path d="M9.18516091,28.7456847 L32.758321,28.7456847 C33.4798377,28.7456847 34.064943,28.1607101 34.064943,27.4390627 C34.064943,26.7174154 33.4798377,26.1324407 32.758321,26.1324407 L9.18516091,26.1324407 C8.46364422,26.1324407 7.87853888,26.7174154 7.87853888,27.4390627 C7.87853888,28.1607101 8.46351356,28.7456847 9.18516091,28.7456847 Z" id="Path" stroke="#0073FF" stroke-width="0.5" fill="#0073FF"></path>
                            <circle id="Oval" stroke="#0073FF" stroke-width="0.5" fill="#0073FF" cx="39.2609869" cy="27.4390627" r="1.30727534"></circle>
                        </g>
                    </g>
                </g>
            </g>
        </g>
    </g>
</svg>