<?xml version="1.0" encoding="UTF-8"?>
<svg width="76px" height="78px" viewBox="0 0 76 78" version="1.1" xmlns="http://www.w3.org/2000/svg" xmlns:xlink="http://www.w3.org/1999/xlink">
    <!-- Generator: Sketch 59.1 (86144) - https://sketch.com -->
    <title>Icon</title>
    <desc>Created with Sketch.</desc>
    <defs>
        <path d="M60.6521586,10.2317905 C42.6521586,-7.54863177 27.3200407,0.537677283 24.6521586,14.0838212 C21.9842765,27.6299652 -2.79876327,30.3346666 0.261187502,46.3346666 C3.32113827,62.3346666 36.6521586,52.8346666 36.6521586,67.3346666 C36.6521586,81.8346666 75.1895892,81.3346666 75.1895892,62.3346666 C75.1895892,43.3346666 78.6521586,28.0122127 60.6521586,10.2317905 Z" id="path-1"></path>
    </defs>
    <g id="LP" stroke="none" stroke-width="1" fill="none" fill-rule="evenodd">
        <g id="RapidSkills-Beta-LP" transform="translate(-1018.000000, -1455.000000)">
            <g id="Features/Benefits" transform="translate(231.000000, 1122.000000)">
                <g id="Service-3" transform="translate(672.000000, 303.000000)">
                    <g id="Icon" transform="translate(115.000000, 30.000000)">
                        <g id="Ornament/bgicon">
                            <mask id="mask-2" fill="white">
                                <use xlink:href="#path-1"></use>
                            </mask>
                            <use id="bgicon" fill-opacity="0.2" fill="#FFFFFF" fill-rule="evenodd" xlink:href="#path-1"></use>
                            <g id="Color/Primary" opacity="0.2" mask="url(#mask-2)" fill="#459EFF" fill-rule="evenodd">
                                <rect id="Rectangle" x="0" y="0" width="76" height="78"></rect>
                            </g>
                        </g>
                        <g id="pencil" transform="translate(17.500000, 18.000000)" fill-rule="nonzero">
                            <path d="M40.890632,6.47437572 C40.8890667,4.76312546 40.2212542,3.15531281 39.0100041,1.94687524 C36.5118788,-0.545625017 32.4506283,-0.542187577 29.9553156,1.9562502 L4.17875044,27.8365654 C3.34031283,28.674378 2.70031276,29.7115656 2.32781272,30.8362532 L2.30375024,30.9093783 L5.68434189e-14,41.0400043 L10.1587511,38.765629 L10.2343761,38.740629 C11.3593762,38.368129 12.3971888,37.7287539 13.2378139,36.8884414 L39.0178165,11.0050011 C40.2268792,9.79437606 40.8921918,8.18531333 40.890632,6.47437572 Z M5.63343811,36.5018788 L4.55625048,35.4240662 L5.33406304,32.0028158 L9.06312591,35.7340662 L5.63343811,36.5018788 Z M36.7537538,8.74687595 L11.7259387,33.875316 L7.19375075,29.3403155 L24.337815,12.1275013 L26.9484403,14.7381265 L29.2093781,12.4771888 L26.5940653,9.86187607 L29.026253,7.42031325 L31.6462533,10.0403135 L33.9071911,7.77937585 L31.2825033,5.15468806 L32.2190658,4.21437548 C33.4675035,2.96437535 35.5009412,2.96250031 36.7515663,4.21031292 C37.3578164,4.81531298 37.6921915,5.62031307 37.6931298,6.47687572 C37.6937508,7.33375076 37.3609414,8.13906333 36.7537538,8.74687595 Z" id="Shape" fill="#333333"></path>
                            <polygon id="Path" fill="#0073FF" points="16.8206267 37.8078164 40.8906292 37.8078164 40.8906292 41.0053168 13.6340639 41.0053168"></polygon>
                        </g>
                    </g>
                </g>
            </g>
        </g>
    </g>
</svg>