<?xml version="1.0" encoding="UTF-8"?>
<svg width="20px" height="16px" viewBox="0 0 20 16" version="1.1" xmlns="http://www.w3.org/2000/svg" xmlns:xlink="http://www.w3.org/1999/xlink">
    <!-- Generator: Sketch 61 (89581) - https://sketch.com -->
    <title>Path</title>
    <desc>Created with Sketch.</desc>
    <g id="Symbols" stroke="none" stroke-width="1" fill="none" fill-rule="evenodd">
        <g id="Icon/Folder-Close-Alt" transform="translate(-1.000000, -4.000000)" fill="#002E58" fill-rule="nonzero">
            <path d="M19.2904123,7.70659752 C18.8030843,7.21919188 18.2196486,6.97552786 17.5401442,6.97552786 L10.0959756,6.97552786 L10.0959756,6.62105104 C10.0959756,5.94162419 9.85219521,5.35818855 9.36486717,4.87089931 C8.87746154,4.38349368 8.2939871,4.13967446 7.61456025,4.13967446 L4.06971439,4.13967446 C3.39013234,4.13967446 2.8067355,4.38345488 2.31940746,4.87089931 C1.83200183,5.35818855 1.58833781,5.94162419 1.58833781,6.62105104 L1.58833781,17.2556662 C1.58833781,17.9349767 1.83200183,18.5184123 2.31940746,19.0057015 C2.8068131,19.4932236 3.39028754,19.7370428 4.06971439,19.7370428 L17.5401054,19.7370428 C18.2196486,19.7370428 18.8030843,19.4932624 19.2903735,19.0057015 C19.7779343,18.5183735 20.0214819,17.9349379 20.0214819,17.2556662 L20.0214819,9.45705964 C20.0214819,8.77759399 19.7779731,8.19419715 19.2904123,7.70659752 Z" id="Path"></path>
        </g>
    </g>
</svg>