<?xml version="1.0" encoding="UTF-8"?>
<svg width="1440px" height="800px" viewBox="0 0 1440 800" version="1.1" xmlns="http://www.w3.org/2000/svg" xmlns:xlink="http://www.w3.org/1999/xlink">
    <!-- Generator: Sketch 59.1 (86144) - https://sketch.com -->
    <title>Background</title>
    <desc>Created with Sketch.</desc>
    <defs>
        <rect id="path-1" x="0" y="0" width="1440" height="800"></rect>
        <linearGradient x1="117.741717%" y1="6.4608172%" x2="28.1973056%" y2="70.8779551%" id="linearGradient-3">
            <stop stop-color="#0077FF" offset="0%"></stop>
            <stop stop-color="#373ED0" offset="100%"></stop>
        </linearGradient>
        <linearGradient x1="121.85165%" y1="3.68584572%" x2="3.44995046%" y2="93.645411%" id="linearGradient-4">
            <stop stop-color="#0077FF" offset="0%"></stop>
            <stop stop-color="#373FE2" offset="100%"></stop>
        </linearGradient>
        <linearGradient x1="99.4086691%" y1="7.58217607%" x2="50%" y2="100%" id="linearGradient-5">
            <stop stop-color="#FFDF76" stop-opacity="0" offset="0%"></stop>
            <stop stop-color="#FFFFFF" stop-opacity="0.368143575" offset="100%"></stop>
        </linearGradient>
    </defs>
    <g id="LP" stroke="none" stroke-width="1" fill="none" fill-rule="evenodd">
        <g id="RapidSkills-Beta-LP">
            <g id="Hero">
                <g id="Background">
                    <mask id="mask-2" fill="white">
                        <use xlink:href="#path-1"></use>
                    </mask>
                    <use id="Rectangle" fill="#0077FF" xlink:href="#path-1"></use>
                    <ellipse id="Oval" fill="url(#linearGradient-3)" mask="url(#mask-2)" cx="383" cy="564.5" rx="897" ry="896.5"></ellipse>
                    <circle id="Oval" fill="url(#linearGradient-4)" mask="url(#mask-2)" cx="383.5" cy="564.5" r="460.5"></circle>
                    <g id="Logo" opacity="0.327613467" style="mix-blend-mode: multiply;" mask="url(#mask-2)">
                        <g transform="translate(3.004210, 156.325703)">
                            <path d="M445.680681,438.959167 L278.153504,845.096641 C276.53445,849.021726 272.707795,851.582694 268.461899,851.582694 L9.06497923,851.582694 C3.27497416,851.582694 -1.41875234,846.888968 -1.41875234,841.098963 C-1.41875234,838.227762 -0.241173297,835.482207 1.83908338,833.503236 L428.763181,427.365762 C432.958185,423.37501 439.594051,423.540588 443.584803,427.735592 C446.438051,430.734873 447.259222,435.132298 445.680681,438.959167 Z" id="Triangle" fill="#0077FF" transform="translate(222.340192, 639.633224) scale(-1, -1) translate(-222.340192, -639.633224) "></path>
                            <path d="M320.956695,415.900323 L233.781073,631.089727 C232.116059,635.199746 228.045215,637.81764 223.614823,637.627479 L98.6721023,632.264692 C92.8874233,632.016402 88.3992931,627.125715 88.6475829,621.341036 C88.7609901,618.698863 89.8687775,616.197168 91.7489249,614.337333 L303.867268,404.510716 C307.983596,400.438861 314.62143,400.474913 318.693285,404.591241 C321.639824,407.569962 322.529863,412.017024 320.956695,415.900323 Z" id="Triangle" fill="#0077FF" transform="translate(204.799680, 521.473621) scale(-1, -1) translate(-204.799680, -521.473621) "></path>
                            <path d="M321.011904,417.109628 L234.079586,631.235626 C232.418066,635.328173 228.369702,637.940343 223.956111,637.767706 L98.6858497,632.867788 C92.9002688,632.641486 88.3935826,627.767892 88.6198843,621.982312 C88.7240171,619.320074 89.8378446,616.797351 91.7350291,614.926778 L303.93761,405.700698 C308.060575,401.635564 314.698341,401.682446 318.763475,405.805411 C321.702799,408.78655 322.586732,413.230617 321.011904,417.109628 Z" id="Triangle" fill="url(#linearGradient-5)" transform="translate(204.823737, 522.137927) scale(-1, -1) translate(-204.823737, -522.137927) "></path>
                            <path d="M321.011904,417.109628 L234.079586,631.235626 C232.418066,635.328173 228.369702,637.940343 223.956111,637.767706 L98.6858497,632.867788 C92.9002688,632.641486 88.3935826,627.767892 88.6198843,621.982312 C88.7240171,619.320074 89.8378446,616.797351 91.7350291,614.926778 L303.93761,405.700698 C308.060575,401.635564 314.698341,401.682446 318.763475,405.805411 C321.702799,408.78655 322.586732,413.230617 321.011904,417.109628 Z" id="Triangle" fill="url(#linearGradient-5)" transform="translate(204.823737, 522.137927) scale(-1, -1) translate(-204.823737, -522.137927) "></path>
                            <path d="M233.643497,412.544505 L53.0168027,412.544505 C47.2267972,412.544505 42.5330705,407.850778 42.5330705,402.060773 C42.5330705,399.15151 43.741975,396.373065 45.8706383,394.389986 L465.238724,3.7034525 L465.238724,3.7034525 C469.83406,-0.785236117 477.276928,-0.777754973 481.862836,3.72016211 C485.163693,6.95768586 486.191933,11.8014661 484.481933,16.0580749 L319.010102,427.957972 C317.829417,430.896985 315.502113,433.163892 312.64731,434.345815 L315.761365,431.290149 C317.99484,429.098552 319.231888,426.118522 319.193067,423.023235 C319.113374,416.669221 313.786261,411.581509 307.294627,411.659512 L233.643497,412.544505 Z" id="Path" fill="#0077FF"></path>
                        </g>
                    </g>
                </g>
            </g>
        </g>
    </g>
</svg>