<?xml version="1.0" encoding="UTF-8"?>
<svg width="121px" height="26px" viewBox="0 0 121 26" version="1.1" xmlns="http://www.w3.org/2000/svg" xmlns:xlink="http://www.w3.org/1999/xlink">
    <!-- Generator: Sketch 59.1 (86144) - https://sketch.com -->
    <title>Logo/Full no Icon</title>
    <desc>Created with Sketch.</desc>
    <g id="LP" stroke="none" stroke-width="1" fill="none" fill-rule="evenodd">
        <g id="RapidSkills-Beta-LP" transform="translate(-152.000000, -2991.000000)">
            <g id="Footer" transform="translate(0.000000, 2893.000000)">
                <g id="Logo/Alt-Full-no-Icon" transform="translate(152.148438, 98.265625)">
                    <g id="Group-16">
                        <g id="Group-10" transform="translate(61.137874, 0.000035)" fill="#002E58">
                            <path d="M9.68197426,15.0264598 C9.68197426,11.2568318 0.976533689,12.0369215 0.976533689,6.29152665 C0.976533689,3.43177319 3.42977686,1.24786732 6.91209319,1.24786732 C9.28617689,1.24786732 11.0276853,2.13185387 11.924359,2.96371939 L10.28863,4.9657194 C9.49738557,4.28987181 8.3895032,3.58779112 6.72715424,3.58779112 C4.80140739,3.58779112 3.66725528,4.65368354 3.66725528,6.10962079 C3.66725528,9.9310246 12.3993158,9.17716804 12.3993158,14.8704419 C12.3993158,17.6004105 10.1565808,19.9921102 5.9887995,19.9921102 C2.95482001,19.9921102 0.949913689,18.8482088 2.13162821e-14,17.9901102 L1.55691974,15.8324374 C2.53275291,16.638415 4.03643265,17.6784195 6.2788174,17.6784195 C8.52155241,17.6784195 9.68197426,16.508285 9.68197426,15.0264598" id="Fill-5"></path>
                            <path d="M17.7650322,12.2188964 L22.6189791,5.43349706 L25.7583878,5.43349706 L20.7198522,12.1667754 L20.7198522,12.2706723 L25.9958662,19.7322644 L22.7776483,19.7322644 L17.7650322,12.3227933 L17.7650322,12.2188964 Z M14.8634522,19.7322644 L17.4750143,19.7322644 L17.4750143,0.000138068966 L14.8634522,0.000138068966 L14.8634522,19.7322644 Z" id="Fill-6"></path>
                            <polygon id="Fill-7" points="28.3123316 19.7321953 30.9238937 19.7321953 30.9238937 5.43342803 28.3123316 5.43342803"></polygon>
                            <path d="M37.044217,2.66453526e-14 L37.044217,16.0146194 C37.044217,17.2102966 37.4925539,17.7042384 38.4687373,17.7042384 C38.9436942,17.7042384 39.2599818,17.5741084 39.4974602,17.4960994 L39.4974602,19.6019963 C38.9699639,19.8101353 38.3104184,19.9402653 37.6508728,19.9402653 C35.5405373,19.9402653 34.4589247,18.7183549 34.4589247,16.690467 L34.4589247,2.66453526e-14 L37.044217,2.66453526e-14 Z" id="Fill-8"></path>
                            <path d="M44.1907414,2.66453526e-14 L44.1907414,16.0146194 C44.1907414,17.2102966 44.6390782,17.7042384 45.6152616,17.7042384 C46.0902185,17.7042384 46.4065061,17.5741084 46.6439845,17.4960994 L46.6439845,19.6019963 C46.1164882,19.8101353 45.4569427,19.9402653 44.7973972,19.9402653 C42.6870616,19.9402653 41.605449,18.7183549 41.605449,16.690467 L41.605449,2.66453526e-14 L44.1907414,2.66453526e-14 Z" id="Fill-9"></path>
                            <path d="M48.9866846,9.30715997 C48.9866846,7.14948721 50.8329218,5.19960823 54.0781099,5.19960823 C56.0830163,5.19960823 57.6921252,5.87545582 58.6154189,6.86333927 L56.9271505,8.57919135 C56.2938747,7.90334376 55.1859923,7.357281 53.9989505,7.357281 C52.3635718,7.357281 51.571977,8.18914652 51.571977,9.17702997 C51.571977,12.0889045 58.7737379,10.9450031 58.7737379,15.7805235 C58.7737379,17.7300573 57.1380089,19.9660842 53.4185644,19.9660842 C50.7803823,19.9660842 48.9337949,18.9519676 48.0630407,18.0683262 L49.6462302,16.1964562 C50.4640947,17.0283217 51.8619949,17.8342993 53.5502634,17.8342993 C55.3443113,17.8342993 56.1621757,16.9503128 56.1621757,15.8844203 C56.1621757,12.9984338 48.9866846,14.1167924 48.9866846,9.30715997" id="Fill-10"></path>
                            <polygon id="Fill-14" points="28.3123316 2.45976767 30.9238937 2.45976767 30.9238937 0.251699725 28.3123316 0.251699725"></polygon>
                        </g>
                        <g id="Group-11" transform="translate(-0.000070, 0.000035)" fill="#0061CC">
                            <path d="M22.0043723,13.2587973 C18.5483257,13.1286673 15.8309841,13.9605329 15.8309841,16.0923177 C15.8309841,17.340116 16.7546281,18.3542325 18.4166268,18.3542325 C20.0520055,18.3542325 21.3448268,17.3925822 22.0043723,16.4302415 L22.0043723,13.2587973 Z M23.9038494,9.67073008 L23.9038494,16.0664298 C23.9038494,17.340116 24.2996468,18.1982146 25.3017497,18.1982146 L25.6712773,18.1982146 L25.6712773,19.680385 C25.4863384,19.7839367 25.1963205,19.8360577 24.9325723,19.8360577 C23.5080521,19.8360577 22.6639178,19.0822012 22.3206599,18.1202056 L22.215581,18.1202056 C21.5294155,18.9002953 20.3686434,20.0179636 17.9413197,20.0179636 C15.2772181,20.0179636 13.7998081,18.1719815 13.7998081,16.2483356 C13.7998081,13.1286673 16.912947,11.5950663 22.0043723,11.6727301 L22.0043723,10.139129 C22.0043723,7.82543835 20.8698699,7.14924558 18.9703928,7.14924558 C17.044646,7.14924558 16.1213523,8.1889049 15.6992852,8.86509766 L14.1956054,7.69530835 C14.696832,7.01946076 16.0421928,5.38161765 19.0232826,5.38161765 C22.0835318,5.38161765 23.9038494,6.70742489 23.9038494,9.67073008 L23.9038494,9.67073008 Z" id="Fill-1"></path>
                            <polygon id="Fill-3" points="42.4684274 19.7321953 44.5262234 19.7321953 44.5262234 5.58944596 42.4684274 5.58944596"></polygon>
                            <path d="M33.9841429,5.32960016 C32.1638253,5.32960016 30.9505137,6.10934465 30.2643482,7.01956431 L30.158919,7.01956431 L29.7105821,5.58951499 L28.1806327,5.58951499 L28.1806327,24.7755785 L30.2114585,24.7755785 L30.2114585,19.5241254 C30.2146108,19.5248157 30.2184637,19.5251609 30.2216161,19.5258513 L30.2216161,17.6553619 C30.2184637,17.6543264 30.2146108,17.6532909 30.2114585,17.6522554 L30.2114585,9.04710708 C30.7130353,8.13723259 31.7417582,7.07134017 33.5095364,7.07134017 C35.4086632,7.07134017 37.2289809,8.34502638 37.2289809,12.3227933 C37.2289809,15.6813209 35.9477182,17.5297192 33.3739845,17.8931857 L33.3739845,19.7077571 C36.9830961,19.3339354 39.3130467,16.6602299 39.3130467,12.0887664 C39.3130467,7.48727293 37.2556009,5.32960016 33.9841429,5.32960016" id="Fill-11"></path>
                            <path d="M8.89037951,14.0384728 C8.0462453,12.6350017 7.38669977,12.036818 6.64799477,11.6988942 L6.64799477,11.5949973 C8.86410978,11.3609704 10.8161264,9.61888518 10.8161264,6.62934689 C10.8161264,2.98984894 8.49458214,1.50802377 4.64308844,1.50802377 L1.50990331e-14,1.50802377 L1.50990331e-14,19.7320918 L2.1106858,19.7320918 L2.1106858,15.3466762 L2.10893448,15.3466762 L2.10893448,6.71736586 L2.1106858,6.71736586 L2.1106858,3.35366067 L4.35307055,3.35366067 C7.14922135,3.35366067 8.65290109,4.31565619 8.65290109,6.86337379 C8.65290109,9.11838518 7.3635824,10.1442376 5.26130292,10.3364986 L5.26130292,12.607388 C5.71139108,12.8935359 6.08722345,13.3218949 6.43678608,13.908688 L9.78740347,19.7320918 L12.2935364,19.7320918 L8.89037951,14.0384728 Z" id="Fill-12"></path>
                            <path d="M56.6769925,3.55271368e-15 L56.6769925,5.82340382 C56.6734899,5.82271348 56.669637,5.8223683 56.6664846,5.82167796 L56.6664846,7.69216728 C56.669637,7.69320279 56.6738402,7.69423831 56.6769925,7.69527383 L56.6769925,15.9883863 C56.1228762,17.3141935 55.0412636,18.2761891 53.3267254,18.2761891 C51.4272483,18.2761891 49.6598204,17.0025028 49.6598204,13.050969 C49.6598204,9.57404729 50.9841654,7.77535383 53.5141162,7.425349 L53.5141162,5.63563003 C49.9554425,5.98667037 47.5757546,8.5402559 47.5757546,13.2846508 C47.5757546,17.9123773 49.6335507,20.0179291 52.8780383,20.0179291 C54.7512457,20.0179291 56.0703367,19.1342877 56.6244531,18.302077 L56.729532,18.302077 L57.1782191,19.7321263 L58.7085189,19.7321263 L58.7085189,3.55271368e-15 L56.6769925,3.55271368e-15 Z" id="Fill-13"></path>
                            <polygon id="Fill-15" points="42.4684274 2.30374973 44.5262234 2.30374973 44.5262234 0.251699725 42.4684274 0.251699725"></polygon>
                        </g>
                    </g>
                </g>
            </g>
        </g>
    </g>
</svg>