<?xml version="1.0" encoding="UTF-8"?>
<svg width="143px" height="30px" viewBox="0 0 143 30" version="1.1" xmlns="http://www.w3.org/2000/svg" xmlns:xlink="http://www.w3.org/1999/xlink">
    <!-- Generator: Sketch 59.1 (86144) - https://sketch.com -->
    <title>Logo</title>
    <desc>Created with Sketch.</desc>
    <defs>
        <linearGradient x1="88.1776775%" y1="7.58217607%" x2="50%" y2="100%" id="linearGradient-1">
            <stop stop-color="#FFDF76" stop-opacity="0" offset="0%"></stop>
            <stop stop-color="#0A0A0A" stop-opacity="0.169384058" offset="100%"></stop>
        </linearGradient>
    </defs>
    <g id="LP" stroke="none" stroke-width="1" fill="none" fill-rule="evenodd">
        <g id="RapidSkills-Beta-LP" transform="translate(-50.000000, -39.000000)">
            <g id="Hero">
                <g id="Logo" transform="translate(50.200001, 39.000000)">
                    <g id="Logo/Mark/Color">
                        <g id="Logo" transform="translate(0.049500, 0.693000)">
                            <path d="M15.0471546,15.0299104 L9.43821188,28.627715 C9.37802774,28.7736199 9.23578175,28.8688172 9.07795156,28.8688172 L0.393137088,28.8688172 C0.177908636,28.8688172 0.00343150144,28.6943401 0.00343150144,28.4791116 C0.00343150144,28.3723822 0.0472049544,28.2703233 0.124533112,28.1967602 L14.4182903,14.5989556 C14.5742287,14.4506097 14.8208998,14.4567647 14.9692457,14.6127031 C15.0753078,14.7241936 15.1058327,14.8876565 15.0471546,15.0299104 Z" id="Triangle" fill="#FFFFFF" transform="translate(7.537375, 21.683689) scale(-1, -1) translate(-7.537375, -21.683689) "></path>
                            <path d="M9.83600061,14.3843055 L7.35243175,21.3539144 C7.29476584,21.5157415 7.13793355,21.6207182 6.96634314,21.6123453 L3.4068176,21.4386539 C3.19184493,21.4281641 3.02607885,21.2453906 3.0365687,21.0304179 C3.0409033,20.9415873 3.07549151,20.8569114 3.13459006,20.7904506 L9.17768448,13.994533 C9.32070461,13.833696 9.56702945,13.8192526 9.72786642,13.9622728 C9.8465224,14.0677845 9.88929888,14.2347352 9.83600061,14.3843055 Z" id="Triangle" fill="#FFFFFF" transform="translate(6.473923, 17.678056) scale(-1, -1) translate(-6.473923, -17.678056) "></path>
                            <path d="M9.83297199,14.4249305 L7.35835811,21.3590673 C7.3008464,21.5202214 7.14494058,21.6250094 6.97400091,21.617403 L3.40805982,21.4587267 C3.19304413,21.449159 3.02649564,21.2670982 3.03606334,21.0520825 C3.04005005,20.9624889 3.07481596,20.8770119 3.13449651,20.8100705 L9.17505149,14.0346099 C9.31827874,13.8739574 9.56462199,13.8598314 9.72527454,14.0030586 C9.84370786,14.108646 9.88630177,14.2754946 9.83297199,14.4249305 Z" id="Triangle" fill="url(#linearGradient-1)" transform="translate(6.472302, 17.700576) scale(-1, -1) translate(-6.472302, -17.700576) "></path>
                            <path d="M6.95035955,13.9853381 L0.914230391,13.9853381 C0.699001926,13.9853381 0.524524781,13.810861 0.524524781,13.5956325 C0.524524781,13.4874882 0.569462678,13.3842067 0.648590228,13.3104909 L14.8014823,0.125547753 L14.8014823,0.125547753 C14.9572651,-0.0266196555 15.2095798,-0.0263660433 15.3650429,0.126114211 C15.4769426,0.23586689 15.5118001,0.400071971 15.4538308,0.544371829 L9.84430389,14.5078576 C9.80427845,14.6074907 9.72538238,14.6843393 9.62860401,14.7244067 L9.73417109,14.620819 C9.80988632,14.5465235 9.8518225,14.4454999 9.85050644,14.3405691 C9.84780483,14.1251668 9.66721468,13.9526924 9.44714704,13.9553367 L6.95035955,13.9853381 Z" id="Path" fill="#FFFFFF"></path>
                        </g>
                    </g>
                    <g id="Group-16" transform="translate(29.735199, 4.435200)" fill="#FFFFFF">
                        <g id="Group-10" transform="translate(57.442457, 0.000033)">
                            <path d="M9.09675709,14.3264216 C9.09675709,10.7324094 0.917508095,11.476157 0.917508095,5.99842308 C0.917508095,3.27189705 3.22246746,1.18973288 6.49429869,1.18973288 C8.72488329,1.18973288 10.361128,2.03253712 11.2036032,2.8256485 L9.66674419,4.73438126 C8.92332568,4.09001941 7.88240814,3.42064657 6.32053819,3.42064657 C4.51119117,3.42064657 3.44559174,4.43688222 3.44559174,5.82499167 C3.44559174,9.46836761 11.6498517,8.749631 11.6498517,14.1776721 C11.6498517,16.7804596 9.54267656,19.060737 5.62681256,19.060737 C2.7762189,19.060737 0.892497114,17.9701266 2.13162821e-14,17.1520043 L1.4628133,15.0948511 C2.37966321,15.8632806 3.79245455,16.8548343 5.89930062,16.8548343 C8.00647577,16.8548343 9.09675709,15.7392129 9.09675709,14.3264216" id="Fill-5"></path>
                            <path d="M16.6912428,11.6496543 L21.2517977,5.18036655 L24.201448,5.18036655 L19.4674617,11.5999614 L19.4674617,11.699018 L24.4245723,18.8129967 L21.4008763,18.8129967 L16.6912428,11.7487109 L16.6912428,11.6496543 Z M13.9650458,18.8129967 L16.4187547,18.8129967 L16.4187547,0.000131636742 L13.9650458,0.000131636742 L13.9650458,18.8129967 Z" id="Fill-6"></path>
                            <polygon id="Fill-7" points="26.6010213 18.8129309 29.0547302 18.8129309 29.0547302 5.18030073 26.6010213 5.18030073"></polygon>
                            <path d="M34.8051167,2.66453526e-14 L34.8051167,15.2685458 C34.8051167,16.40852 35.2263543,16.8794504 36.1435333,16.8794504 C36.5897819,16.8794504 36.8869518,16.7553828 37.1100761,16.681008 L37.1100761,18.6887974 C36.6144637,18.8872398 35.9947838,19.0113074 35.3751038,19.0113074 C33.3923254,19.0113074 32.3760897,17.8463223 32.3760897,15.9129076 L32.3760897,2.66453526e-14 L34.8051167,2.66453526e-14 Z" id="Fill-8"></path>
                            <path d="M41.5196766,2.66453526e-14 L41.5196766,15.2685458 C41.5196766,16.40852 41.9409142,16.8794504 42.8580932,16.8794504 C43.3043417,16.8794504 43.6015117,16.7553828 43.824636,16.681008 L43.824636,18.6887974 C43.3290236,18.8872398 42.7093437,19.0113074 42.0896637,19.0113074 C40.1068853,19.0113074 39.0906496,17.8463223 39.0906496,15.9129076 L39.0906496,2.66453526e-14 L41.5196766,2.66453526e-14 Z" id="Fill-9"></path>
                            <path d="M46.0257339,8.87356699 C46.0257339,6.8164138 47.7603771,4.9573739 50.8094131,4.9573739 C52.6931349,4.9573739 54.2049829,5.60173576 55.0724691,6.54359665 L53.4862463,8.17951227 C52.8912482,7.53515041 51.8503307,7.0145271 50.7350384,7.0145271 C49.1985085,7.0145271 48.4547609,7.80763847 48.4547609,8.74949936 C48.4547609,11.5257183 55.2212186,10.4351079 55.2212186,15.0453557 C55.2212186,16.9040665 53.6843596,19.0359235 50.1897332,19.0359235 C47.7110133,19.0359235 45.9760411,18.0690516 45.1579187,17.2265765 L46.6454139,15.4419114 C47.4138434,16.2350227 48.727249,17.0034522 50.3134717,17.0034522 C51.9990802,17.0034522 52.7675097,16.160648 52.7675097,15.1444123 C52.7675097,12.3928753 46.0257339,13.4591329 46.0257339,8.87356699" id="Fill-10"></path>
                            <polygon id="Fill-14" points="26.6010213 2.34517439 29.0547302 2.34517439 29.0547302 0.239973782 26.6010213 0.239973782"></polygon>
                        </g>
                        <g id="Group-11" transform="translate(-0.000066, 0.000033)">
                            <path d="M20.6743402,12.6411093 C17.4271909,12.5170417 14.8740963,13.310153 14.8740963,15.3426243 C14.8740963,16.5322914 15.7419115,17.4991633 17.3034523,17.4991633 C18.8399822,17.4991633 20.0546603,16.5823134 20.6743402,15.6648053 L20.6743402,12.6411093 Z M22.4590054,9.22019945 L22.4590054,15.3179425 C22.4590054,16.5322914 22.8308792,17.3504138 23.772411,17.3504138 L24.1196029,17.3504138 L24.1196029,18.7635342 C23.9458424,18.8622617 23.6733543,18.9119546 23.4255481,18.9119546 C22.0871316,18.9119546 21.2940202,18.193218 20.9715102,17.276039 L20.8727826,17.276039 C20.2280917,18.0197866 19.1374813,19.085386 16.8568747,19.085386 C14.353802,19.085386 12.9656926,17.3254028 12.9656926,15.4913739 C12.9656926,12.5170417 15.890661,11.0548865 20.6743402,11.1289322 L20.6743402,9.66677709 C20.6743402,7.46087438 19.6084117,6.81618344 17.8237466,6.81618344 C16.0143995,6.81618344 15.1469134,7.80740811 14.7503577,8.45209905 L13.3375664,7.33680675 C13.8084968,6.6924449 15.0725387,5.13090404 17.8734394,5.13090404 C20.748715,5.13090404 22.4590054,6.39494586 22.4590054,9.22019945 L22.4590054,9.22019945 Z" id="Fill-1"></path>
                            <polygon id="Fill-3" points="39.9014661 18.8129309 41.8348808 18.8129309 41.8348808 5.32905025 39.9014661 5.32905025"></polygon>
                            <path d="M31.9300057,5.0813099 C30.2197153,5.0813099 29.0797411,5.8247284 28.4350502,6.69254363 L28.3359936,6.69254363 L27.914756,5.32911607 L26.4772828,5.32911607 L26.4772828,23.6213578 L28.3853573,23.6213578 L28.3853573,18.6145543 C28.3883192,18.6152125 28.3919392,18.6155416 28.394901,18.6161998 L28.394901,16.832851 C28.3919392,16.8318637 28.3883192,16.8308764 28.3853573,16.8298892 L28.3853573,8.62562919 C28.8566169,7.75814306 29.8231597,6.7419074 31.4840863,6.7419074 C33.2684223,6.7419074 34.9787127,7.95625635 34.9787127,11.7487109 C34.9787127,14.9507747 33.7748947,16.7130616 31.3567277,17.0595953 L31.3567277,18.7896312 C34.7476902,18.4332247 36.9368092,15.8840792 36.9368092,11.5255866 C36.9368092,7.13846309 35.0037237,5.0813099 31.9300057,5.0813099" id="Fill-11"></path>
                            <path d="M8.3530095,13.384462 C7.55989812,12.0463745 6.94021816,11.4760583 6.24616343,11.1538774 L6.24616343,11.0548207 C8.32832761,10.8316964 10.1623565,9.17076985 10.1623565,6.32050528 C10.1623565,2.85056075 7.9811357,1.43776941 4.36244165,1.43776941 L1.50990331e-14,1.43776941 L1.50990331e-14,18.8128321 L1.98310753,18.8128321 L1.98310753,14.6317201 L1.98146207,14.6317201 L1.98146207,6.40442371 L1.98310753,6.40442371 L1.98310753,3.19742357 L4.08995359,3.19742357 C6.71709388,3.19742357 8.12988522,4.11460257 8.12988522,6.54362956 C8.12988522,8.69358666 6.91849809,9.67164765 4.94328877,9.85495182 L4.94328877,12.0200471 C5.36617181,12.2928643 5.71928737,12.7012673 6.04772104,13.2607234 L9.19581374,18.8128321 L11.550466,18.8128321 L8.3530095,13.384462 Z" id="Fill-12"></path>
                            <path d="M53.2512089,3.55271368e-15 L53.2512089,5.55210871 C53.247918,5.55145052 53.244298,5.55112143 53.2413361,5.55046325 L53.2413361,7.33381202 C53.244298,7.33479929 53.2482471,7.33578657 53.2512089,7.33677384 L53.2512089,15.2435348 C52.7305856,16.5075766 51.7143499,17.4247556 50.1034453,17.4247556 C48.3187802,17.4247556 46.6581827,16.2104067 46.6581827,12.4429631 C46.6581827,9.12802082 47.902479,7.41312315 50.2795094,7.07942401 L50.2795094,5.37308274 C46.9359362,5.70776915 44.7000861,8.14239071 44.7000861,12.6657583 C44.7000861,17.0778928 46.6335008,19.0853531 49.6818786,19.0853531 C51.4418619,19.0853531 52.6812218,18.242878 53.2018451,17.4494375 L53.3005727,17.4494375 L53.7221393,18.8128651 L55.1599417,18.8128651 L55.1599417,3.55271368e-15 L53.2512089,3.55271368e-15 Z" id="Fill-13"></path>
                            <polygon id="Fill-15" points="39.9014661 2.19642487 41.8348808 2.19642487 41.8348808 0.239973782 39.9014661 0.239973782"></polygon>
                        </g>
                    </g>
                </g>
            </g>
        </g>
    </g>
</svg>