<?xml version="1.0" encoding="UTF-8"?>
<svg width="17px" height="30px" viewBox="0 0 17 30" version="1.1" xmlns="http://www.w3.org/2000/svg" xmlns:xlink="http://www.w3.org/1999/xlink">
    <!-- Generator: Sketch 60 (88103) - https://sketch.com -->
    <title>Logo</title>
    <desc>Created with Sketch.</desc>
    <defs>
        <linearGradient x1="88.1776775%" y1="7.58217607%" x2="50%" y2="100%" id="linearGradient-1">
            <stop stop-color="#FFDF76" stop-opacity="0" offset="0%"></stop>
            <stop stop-color="#0A0A0A" stop-opacity="0.169384058" offset="100%"></stop>
        </linearGradient>
    </defs>
    <g id="Symbols" stroke="none" stroke-width="1" fill="none" fill-rule="evenodd">
        <g id="Logo/Mark-Color" transform="translate(-12.000000, -5.000000)">
            <g id="Logo" transform="translate(12.500000, 5.000000)">
                <path d="M15.5093333,15.4915595 L9.72810993,29.5070255 C9.66607721,29.6574119 9.51946208,29.7555332 9.35678408,29.7555332 L0.405212434,29.7555332 C0.183373163,29.7555332 0.00353690123,29.575697 0.00353690123,29.3538577 C0.00353690123,29.24385 0.0486548714,29.1386563 0.128358191,29.0628337 L14.8611532,15.0473677 C15.0218813,14.8944654 15.2761291,14.9008094 15.4290314,15.0615375 C15.5383513,15.1764525 15.5698138,15.3449362 15.5093333,15.4915595 Z" id="Triangle" fill="#FFFFFF" transform="translate(7.768888, 22.349712) scale(-1, -1) translate(-7.768888, -22.349712) "></path>
                <path d="M10.1381169,14.8261245 L7.57826431,22.0098075 C7.51882718,22.1766052 7.35717772,22.2848063 7.18031685,22.2761761 L3.51145922,22.0971498 C3.28988359,22.0863378 3.11902594,21.8979504 3.12983799,21.6763747 C3.13430573,21.5848156 3.16995632,21.4975389 3.23087011,21.4290368 L9.45958033,14.4243801 C9.60699337,14.2586029 9.86088417,14.2437159 10.0266613,14.3911289 C10.1489619,14.4998815 10.1930522,14.6719601 10.1381169,14.8261245 Z" id="Triangle" fill="#FFFFFF" transform="translate(6.672772, 18.221044) scale(-1, -1) translate(-6.672772, -18.221044) "></path>
                <path d="M10.1349952,14.8679974 L7.5843727,22.0151187 C7.5250945,22.1812226 7.36439997,22.2892293 7.18820983,22.2813892 L3.51273959,22.1178392 C3.29111962,22.1079776 3.11945553,21.9203247 3.12931711,21.6987048 C3.13342628,21.6063592 3.16926003,21.5182568 3.23077368,21.4492593 L9.45686647,14.465688 C9.60449299,14.3001009 9.85840276,14.285541 10.0239898,14.4331676 C10.1460609,14.5419981 10.1899631,14.7139715 10.1349952,14.8679974 Z" id="Triangle" fill="url(#linearGradient-1)" transform="translate(6.671101, 18.244256) scale(-1, -1) translate(-6.671101, -18.244256) "></path>
                <path d="M7.16384233,14.4149028 L0.942311304,14.4149028 C0.720472019,14.4149028 0.540635747,14.2350665 0.540635747,14.0132272 C0.540635747,13.9017612 0.586953927,13.7953074 0.668511908,13.7193273 L15.2561151,0.129403997 L15.2561151,0.129403997 C15.4166828,-0.0274372877 15.6767474,-0.0271758857 15.8369857,0.129987854 C15.9523224,0.243111625 15.9882506,0.412360325 15.9285007,0.561092404 L10.1466752,14.9534716 C10.1054204,15.056165 10.024101,15.135374 9.92435001,15.1766721 L10.0331596,15.0699027 C10.1112005,14.9933251 10.1544247,14.8891986 10.1530683,14.7810448 C10.1502837,14.5590263 9.96414662,14.3812543 9.73731953,14.3839798 L7.16384233,14.4149028 Z" id="Path" fill="#FFFFFF"></path>
            </g>
        </g>
    </g>
</svg>