<?xml version="1.0" encoding="UTF-8"?>
<svg width="24px" height="24px" viewBox="0 0 24 24" version="1.1" xmlns="http://www.w3.org/2000/svg" xmlns:xlink="http://www.w3.org/1999/xlink">
    <!-- Generator: Sketch 60 (88103) - https://sketch.com -->
    <title>settings</title>
    <desc>Created with Sketch.</desc>
    <g id="Symbols" stroke="none" stroke-width="1" fill="none" fill-rule="evenodd">
        <g id="UI/Left-Settings-Static" transform="translate(-18.000000, -18.000000)" fill="#FFFFFF" fill-rule="nonzero">
            <g id="Group">
                <g id="settings" transform="translate(18.000000, 18.000000)">
                    <path d="M22.7100003,9.45505014 L21.0300003,9.17005014 C20.8550003,8.60505013 20.6300003,8.06005012 20.3550003,7.54005011 L21.3450003,6.15505009 C21.7650003,5.56505008 21.7000003,4.76005007 21.1850003,4.25005006 L19.6950003,2.76005004 C19.4150003,2.48005004 19.0450003,2.32505003 18.6500003,2.32505003 C18.3400003,2.32505003 18.0450003,2.42005004 17.7950003,2.60005004 L16.4050002,3.59005005 C15.8650002,3.30505005 15.3000002,3.07005005 14.7150002,2.89505004 L14.4350002,1.23505002 C14.3150002,0.520050008 13.7000002,5.00000007e-05 12.9750002,5.00000007e-05 L10.8700002,5.00000007e-05 C10.1450002,5.00000007e-05 9.53000014,0.520050008 9.41000014,1.23505002 L9.12000014,2.93505004 C8.56000013,3.11005005 8.01500012,3.34005005 7.49500011,3.62005005 L6.12000009,2.63005004 C5.87000009,2.45005004 5.57000008,2.35505004 5.26000008,2.35505004 C4.86500007,2.35505004 4.49000007,2.51005004 4.21500006,2.79005004 L2.72000004,4.28005006 C2.21000003,4.79005007 2.14000003,5.59505008 2.56000004,6.18505009 L3.56000005,7.59005011 C3.28500005,8.11505012 3.06500005,8.66005013 2.89500004,9.22505014 L1.23500002,9.50505014 C0.520000008,9.62505014 -2.84217094e-14,10.2400502 -2.84217094e-14,10.9650502 L-2.84217094e-14,13.0700502 C-2.84217094e-14,13.7950502 0.520000008,14.4100502 1.23500002,14.5300502 L2.93500004,14.8200502 C3.11000005,15.3800502 3.34000005,15.9250502 3.62000005,16.4450502 L2.63500004,17.8150503 C2.21500003,18.4050503 2.28000003,19.2100503 2.79500004,19.7200503 L4.28500006,21.2100503 C4.56500007,21.4900503 4.93500007,21.6450503 5.33000008,21.6450503 C5.64000008,21.6450503 5.93500009,21.5500503 6.18500009,21.3700503 L7.59000011,20.3700503 C8.09500012,20.6350503 8.62500013,20.8500503 9.17000014,21.0200503 L9.45000014,22.7000503 C9.57000014,23.4150503 10.1850002,23.9350504 10.9100002,23.9350504 L13.0200002,23.9350504 C13.7450002,23.9350504 14.3600002,23.4150503 14.4800002,22.7000503 L14.7650002,21.0200503 C15.3300002,20.8450503 15.8750002,20.6200503 16.3950002,20.3450503 L17.7800003,21.3350503 C18.0300003,21.5150503 18.3300003,21.6100503 18.6400003,21.6100503 L18.6400003,21.6100503 C19.0350003,21.6100503 19.4050003,21.4550503 19.6850003,21.1750503 L21.1750003,19.6850503 C21.6850003,19.1750503 21.7550003,18.3700503 21.3350003,17.7800503 L20.3450003,16.3900502 C20.6200003,15.8650502 20.8500003,15.3200502 21.0200003,14.7600502 L22.7000003,14.4800502 C23.4150003,14.3600502 23.9351421,13.7450502 23.9351421,13.0200502 L23.9351421,10.9150502 C23.9450004,10.1900502 23.4250003,9.57505014 22.7100003,9.45505014 Z M22.5950003,13.0200502 C22.5950003,13.0850502 22.5500003,13.1400502 22.4850003,13.1500502 L20.3850003,13.5000502 C20.1200003,13.5450502 19.9100003,13.7400502 19.8450003,13.9950502 C19.6550003,14.7300502 19.3650003,15.4350502 18.9750003,16.0900502 C18.8400003,16.3200502 18.85,16.6050502 19.0050003,16.8250503 L20.2400003,18.5650503 C20.2750003,18.6150503 20.2700003,18.6900503 20.2250003,18.7350503 L18.7350003,20.2250503 C18.7000003,20.2600503 18.6650003,20.2650503 18.6400003,20.2650503 C18.6100003,20.2650503 18.5850003,20.2550503 18.5650003,20.2400503 L16.8300003,19.0050503 C16.6150002,18.8500503 16.3250002,18.8400503 16.0950002,18.9750503 C15.4400002,19.3650503 14.7350002,19.6550503 14.0000002,19.84505 C13.7400002,19.9100503 13.5450002,20.1250503 13.5050002,20.3850503 L13.1500002,22.4850503 C13.1400002,22.5500503 13.0850002,22.5950503 13.0200002,22.5950503 L10.9150002,22.5950503 C10.85,22.5950503 10.7950002,22.5500503 10.7850002,22.4850503 L10.4350002,20.3850503 C10.3900002,20.1200503 10.1950002,19.9100503 9.94000015,19.84505 C9.22500014,19.6600503 8.53500013,19.3750503 7.89000012,19.0050503 C7.78500012,18.9450503 7.66500011,18.9150503 7.55000011,18.9150503 C7.41500011,18.9150503 7.27500011,18.9550503 7.16000011,19.0400503 L5.41000008,20.2850503 C5.38500008,20.3000503 5.36000008,20.3100503 5.33500008,20.3100503 C5.31500008,20.3100503 5.27500008,20.3050503 5.24000008,20.2700503 L3.75000006,18.7800503 C3.70500006,18.7350503 3.70000006,18.6650503 3.73500006,18.6100503 L4.96500007,16.8850503 C5.12000008,16.6650502 5.13000008,16.3750502 4.99500007,16.1450502 C4.60500007,15.4950502 4.30500006,14.7900502 4.11500006,14.0550502 C4.04500006,13.8000502 3.83500006,13.6050502 3.57500005,13.5600502 L1.46000002,13.2000502 C1.39500002,13.1900502 1.35000002,13.1350502 1.35000002,13.0700502 L1.35000002,10.9650502 C1.35000002,10.9000502 1.39500002,10.84505 1.46000002,10.8350502 L3.54500005,10.4850502 C3.81000006,10.4400502 4.02500006,10.2450502 4.09000006,9.98505015 C4.27500006,9.25005014 4.56000007,8.54005013 4.94500007,7.88505012 C5.08000008,7.65505011 5.06500008,7.37005011 4.91000007,7.15505011 L3.66500005,5.40505008 C3.63000005,5.35505008 3.63500005,5.28005008 3.68000005,5.23505008 L5.17000008,3.74505006 C5.20500008,3.71005006 5.24000008,3.70505006 5.26500008,3.70505006 C5.29500008,3.70505006 5.32000008,3.71505006 5.34000008,3.73005006 L7.06500011,4.96005007 C7.28500011,5.11505008 7.57500011,5.12505008 7.80500012,4.99005007 C8.45500013,4.60005007 9.16000014,4.30005006 9.89500015,4.11005006 C10.1500002,4.04005006 10.3450002,3.83005006 10.3900002,3.57005005 L10.7500002,1.45505002 C10.7600002,1.39005002 10.8150002,1.34505002 10.8800002,1.34505002 L12.9850002,1.34505002 C13.0500002,1.34505002 13.1050002,1.39005002 13.1150002,1.45505002 L13.4650002,3.54005005 C13.5100002,3.80505006 13.7050002,4.02005006 13.9650002,4.08505006 C14.7200002,4.27505006 15.4400002,4.57005007 16.1100002,4.96505007 C16.3400002,5.10005008 16.6250002,5.09005008 16.8450003,4.93505007 L18.5700003,3.69505006 C18.5950003,3.68005005 18.6200003,3.67005005 18.6450003,3.67005005 C18.6650003,3.67005005 18.7050003,3.67505005 18.7400003,3.71005006 L20.2300003,5.20005008 C20.2750003,5.24505008 20.2800003,5.31505008 20.2450003,5.37005008 L19.0100003,7.10505011 C18.8550003,7.32005011 18.8450003,7.61005011 18.9800003,7.84005012 C19.3700003,8.49505013 19.6600003,9.20005014 19.85,9.93505015 C19.9150003,10.1950502 20.1300003,10.3900502 20.3900003,10.4300502 L22.4900003,10.7850502 C22.5550003,10.7950502 22.6000003,10.8500502 22.6000003,10.9150502 L22.6000003,13.0200502 L22.5950003,13.0200502 L22.5950003,13.0200502 Z" id="Shape"></path>
                    <path d="M11.9700002,6.8000501 C9.12000014,6.8000501 6.8050001,9.11505014 6.8050001,11.9650502 C6.8050001,14.8150502 9.12000014,17.1300503 11.9700002,17.1300503 C14.8200002,17.1300503 17.1350003,14.8150502 17.1350003,11.9650502 C17.1350003,9.11505014 14.8200002,6.8000501 11.9700002,6.8000501 Z M11.9700002,15.7800502 C9.86500015,15.7800502 8.15500012,14.0700502 8.15500012,11.9650502 C8.15500012,9.86005015 9.86500015,8.15005012 11.9700002,8.15005012 C14.0750002,8.15005012 15.7850002,9.86005015 15.7850002,11.9650502 C15.7850002,14.0700502 14.0750002,15.7800502 11.9700002,15.7800502 Z" id="Shape"></path>
                </g>
            </g>
        </g>
    </g>
</svg>