<?xml version="1.0" encoding="UTF-8"?>
<svg width="24px" height="24px" viewBox="0 0 24 24" version="1.1" xmlns="http://www.w3.org/2000/svg" xmlns:xlink="http://www.w3.org/1999/xlink">
    <!-- Generator: Sketch 60 (88103) - https://sketch.com -->
    <title>Fill</title>
    <desc>Created with Sketch.</desc>
    <g id="Symbols" stroke="none" stroke-width="1" fill="none" fill-rule="evenodd">
        <g id="UI/Saved" transform="translate(-18.000000, -18.000000)" fill="#FFFFFF" fill-rule="nonzero">
            <g id="Group">
                <path d="M30.1988032,20.4902377 C31.4799383,19.2117147 33.1750713,18.4665001 35.0039999,18.4665001 C38.8370562,18.4665001 42.0199999,21.6494438 42.0199999,25.4825 C42.0199999,27.0758696 41.3858956,28.8449451 40.2260424,30.7745818 C39.2295263,32.4324762 37.8645952,34.174896 36.2224896,35.9606858 C34.9858623,37.305518 33.6634394,38.5981864 32.3411034,39.7937985 L31.8020274,40.2756462 C31.7150305,40.3524931 31.6295158,40.4275787 31.5455697,40.5008571 L31.061406,40.9184732 L30.5675334,41.3320025 C30.2699372,41.5737994 29.8564466,41.5979791 29.5356716,41.4045416 L29.4324666,41.3320025 L28.7014768,40.7152247 L28.1979726,40.2756462 L27.6588966,39.7937985 C26.3365606,38.5981864 25.0141377,37.305518 23.7775104,35.9606858 C22.1354048,34.174896 20.7704737,32.4324762 19.7739576,30.7745818 C18.6141044,28.8449451 17.9800001,27.0758696 17.9800001,25.4825 C17.9800001,21.6494438 21.1629438,18.4665001 24.9960001,18.4665001 C26.8249287,18.4665001 28.5200617,19.2117147 29.8011968,20.4902377 L30,20.6965108 L30.1988032,20.4902377 Z M30,39.4578214 L30.5439104,38.9852045 C30.7332323,38.81849 30.9302335,38.6427841 31.1338965,38.4586388 C32.4178106,37.2977665 33.7016376,36.0428256 34.8975103,34.7423141 C36.4639065,33.0388582 37.7574704,31.387543 38.6832862,29.8472722 C39.6899113,28.1725596 40.2199999,26.6936754 40.2199999,25.4825 C40.2199999,22.6435564 37.8429436,20.2665001 35.0039999,20.2665001 C33.2992609,20.2665001 31.7416065,21.1565883 30.7488453,22.6457303 C30.3926054,23.18009 29.6073946,23.18009 29.2511547,22.6457303 C28.2583935,21.1565883 26.7007391,20.2665001 24.9960001,20.2665001 C22.1570564,20.2665001 19.7800001,22.6435564 19.7800001,25.4825 C19.7800001,26.6936754 20.3100887,28.1725596 21.3167138,29.8472722 C22.2425296,31.387543 23.5360935,33.0388582 25.1024897,34.7423141 C26.2983624,36.0428256 27.5821894,37.2977665 28.8661035,38.4586388 L29.4560896,38.9852045 L30,39.4578214 Z" id="Fill"></path>
            </g>
        </g>
    </g>
</svg>