<?xml version="1.0" encoding="UTF-8"?>
<svg width="22px" height="22px" viewBox="0 0 22 22" version="1.1" xmlns="http://www.w3.org/2000/svg" xmlns:xlink="http://www.w3.org/1999/xlink">
    <!-- Generator: Sketch 60 (88103) - https://sketch.com -->
    <title>Combined Shape</title>
    <desc>Created with Sketch.</desc>
    <g id="Symbols" stroke="none" stroke-width="1" fill="none" fill-rule="evenodd">
        <g id="UI/Left-Standards-Static" transform="translate(-19.000000, -19.000000)" fill="#FFFFFF" fill-rule="nonzero">
            <g id="Group">
                <path d="M40.2782257,30.7533813 L40.2782257,40.8570095 L30.8217745,40.8570095 L30.8217745,30.7533813 L40.2782257,30.7533813 Z M29.1782255,30.7533813 L29.1782255,40.8570095 L19.7217743,40.8570095 L19.7217743,30.7533813 L29.1782255,30.7533813 Z M38.7782257,32.2533813 L32.3217745,32.2533813 L32.3217745,39.3570095 L38.7782257,39.3570095 L38.7782257,32.2533813 Z M27.6782255,32.2533813 L21.2217743,32.2533813 L21.2217743,39.3570095 L27.6782255,39.3570095 L27.6782255,32.2533813 Z M40.2782257,19.1429905 L40.2782257,29.2466187 L30.8217745,29.2466187 L30.8217745,19.1429905 L40.2782257,19.1429905 Z M29.1782255,19.1429905 L29.1782255,29.2466187 L19.7217743,29.2466187 L19.7217743,19.1429905 L29.1782255,19.1429905 Z M38.7782257,20.6429905 L32.3217745,20.6429905 L32.3217745,27.7466187 L38.7782257,27.7466187 L38.7782257,20.6429905 Z M27.6782255,20.6429905 L21.2217743,20.6429905 L21.2217743,27.7466187 L27.6782255,27.7466187 L27.6782255,20.6429905 Z" id="Combined-Shape"></path>
            </g>
        </g>
    </g>
</svg>