<?xml version="1.0" encoding="UTF-8"?>
<svg width="87px" height="89px" viewBox="0 0 87 89" version="1.1" xmlns="http://www.w3.org/2000/svg" xmlns:xlink="http://www.w3.org/1999/xlink">
    <!-- Generator: Sketch 59.1 (86144) - https://sketch.com -->
    <title>Icon</title>
    <desc>Created with Sketch.</desc>
    <defs>
        <path d="M69.1434599,11.664241 C48.6234602,-8.60544011 31.144846,0.612952095 28.1034604,16.055556 C25.0620749,31.4981599 -3.19059008,34.5815195 0.297753749,52.8215192 C3.78609758,71.061519 41.7834603,60.2315191 41.7834603,76.7615189 C41.7834603,93.2915187 85.7161306,92.7215187 85.7161306,71.061519 C85.7161306,49.4015193 89.6634597,31.9339221 69.1434599,11.664241 Z" id="path-1"></path>
    </defs>
    <g id="LP" stroke="none" stroke-width="1" fill="none" fill-rule="evenodd">
        <g id="RapidSkills-Beta-LP" transform="translate(-340.000000, -1852.000000)">
            <g id="Features/Benefits" transform="translate(231.000000, 1122.000000)">
                <g id="Service-4" transform="translate(0.000000, 706.000000)">
                    <g id="Icon" transform="translate(109.540001, 24.540001)">
                        <g id="Ornament/bgicon">
                            <mask id="mask-2" fill="white">
                                <use xlink:href="#path-1"></use>
                            </mask>
                            <use id="bgicon" fill-opacity="0.2" fill="#FFFFFF" fill-rule="evenodd" xlink:href="#path-1"></use>
                            <g id="Color/Primary" opacity="0.2" mask="url(#mask-2)" fill="#459EFF" fill-rule="evenodd">
                                <rect id="Rectangle" x="0" y="0" width="86.9999989" height="88.9999989"></rect>
                            </g>
                        </g>
                        <g id="skills" transform="translate(8.263001, 7.322001)" fill-rule="nonzero">
                            <path d="M46.9356375,45.1545575 C46.7230663,45.0913319 46.4995784,45.0772313 46.2813973,45.1092231 C46.2559251,45.1080101 46.2303013,45.1074036 46.2048292,45.1063423 C48.1730083,43.1834975 49.3980979,40.5030076 49.3980979,37.5406561 L49.3980979,22.4397594 C49.3980979,21.6025138 48.7191436,20.9235594 47.8818979,20.9235594 L36.6506467,20.9235594 C32.0084973,20.9235594 28.2317949,24.7002619 28.2317949,29.3424113 L28.2317949,37.5405045 C28.2317949,40.502856 29.4568844,43.1833459 31.4250636,45.1061907 C31.3995914,45.107252 31.3739676,45.1078585 31.3484955,45.1090715 C31.1304659,45.0772313 30.9068264,45.0911803 30.6942552,45.1544058 C22.8561079,45.8580742 16.6918453,52.4624896 16.6918453,60.4807615 L16.6918453,67.9257582 C16.6918453,68.7630038 17.3707997,69.4419581 18.2080453,69.4419581 L59.4219991,69.4419581 C60.2592447,69.4419581 60.938199,68.7630038 60.938199,67.9257582 L60.938199,60.4809131 C60.938199,52.4627929 54.7737848,45.8582259 46.9356375,45.1545575 Z M31.2638915,31.4661526 L31.2638915,29.3424113 L31.2638915,29.3424113 C31.2638915,26.3723272 33.680411,23.9559593 36.6503435,23.9559593 L46.3653947,23.9559593 L46.3653947,28.0134621 C46.3653947,30.0636676 44.6974232,31.7316392 42.6472176,31.7316392 L31.2638915,31.7316392 L31.2638915,31.4661526 L31.2638915,31.4661526 Z M31.2638915,37.5406561 L31.2638915,34.7640391 L42.6472176,34.7640391 C44.0204399,34.7640391 45.2982932,34.3508746 46.3653947,33.6438706 L46.3653947,37.5405045 C46.3653947,41.7039896 42.9780524,45.0913319 38.8145673,45.0913319 C34.6510822,45.0913319 31.2638915,41.7041412 31.2638915,37.5406561 Z M42.8414428,48.1237318 L38.8147189,52.1504557 L34.7879951,48.1237318 L42.8414428,48.1237318 Z M57.9054959,66.4095582 L19.723942,66.4095582 L19.723942,62.0459347 L32.0967402,62.0459347 C32.9339858,62.0459347 33.6129401,61.3669804 33.6129401,60.5297348 C33.6129401,59.6924891 32.9339858,59.0135348 32.0967402,59.0135348 L19.8141559,59.0135348 C20.4843163,53.3782744 24.959987,48.8965389 30.5923666,48.2166749 L37.742614,55.3669223 C38.0387278,55.6628845 38.4267234,55.8110172 38.8147189,55.8110172 C39.2027145,55.8110172 39.5907101,55.6628845 39.8868239,55.3669223 L47.0370713,48.2166749 C53.1508444,48.9546094 57.9054959,54.1713986 57.9054959,60.4809131 L57.9054959,66.4095582 Z" id="Shape" fill="#333333"></path>
                            <path d="M39.8865207,59.4577814 C39.6046591,59.1757682 39.2134795,59.0135348 38.8147189,59.0135348 C38.4159584,59.0135348 38.0247788,59.1757682 37.7427656,59.4577814 C37.4607524,59.7397946 37.298519,60.1309742 37.298519,60.5297348 C37.298519,60.9284953 37.4606008,61.3196749 37.7427656,61.6016881 C38.0247788,61.8835497 38.4159584,62.0459347 38.8147189,62.0459347 C39.2134795,62.0459347 39.6046591,61.8837013 39.8865207,61.6016881 C40.1685339,61.3196749 40.3309189,60.9284953 40.3309189,60.5297348 C40.3309189,60.1309742 40.1686855,59.7397946 39.8865207,59.4577814 Z" id="Path" fill="#333333"></path>
                            <path d="M38.8339747,0 C35.6570809,0 33.0724148,2.58466607 33.0724148,5.76155984 C33.0724148,8.41369681 34.8742669,10.6517596 37.3177747,11.3191908 L37.3177747,15.022206 C37.3177747,15.8594516 37.9967291,16.5384059 38.8339747,16.5384059 C39.6712203,16.5384059 40.3501746,15.8594516 40.3501746,15.022206 L40.3501746,11.3191908 C42.7936825,10.6517596 44.5955345,8.41369681 44.5955345,5.76155984 C44.5955345,2.58466607 42.0108685,0 38.8339747,0 Z M38.8339747,8.49071977 C37.3291462,8.49071977 36.1048148,7.2663883 36.1048148,5.76155984 C36.1048148,4.25673138 37.3291462,3.03239992 38.8339747,3.03239992 C40.3388031,3.03239992 41.5631346,4.25673138 41.5631346,5.76155984 C41.5631346,7.2663883 40.3388031,8.49071977 38.8339747,8.49071977 Z" id="Shape" fill="#0073FF"></path>
                            <path d="M69.2725986,11.8265113 C68.1842702,10.7383346 66.7375122,10.1389807 65.1985693,10.1389807 C63.6596263,10.1389807 62.2128683,10.7383346 61.12454,11.8266629 C59.2493039,13.7020506 58.9409088,16.5585714 60.1966256,18.7584259 L57.5781483,21.3769032 C56.9860722,21.9689793 56.9860722,22.9290371 57.5781483,23.5212648 C57.8744138,23.8170754 58.2624093,23.9652082 58.6504049,23.9652082 C59.0385521,23.9652082 59.426396,23.8170754 59.7225099,23.5211132 L62.3397743,20.9038488 C63.2009758,21.3976752 64.1790764,21.6622521 65.1985693,21.6622521 C66.7375122,21.6622521 68.1842702,21.0628982 69.272447,19.9747215 C70.3609269,18.8865448 70.9602807,17.4396352 70.9602807,15.9006922 C70.9602807,14.3617492 70.3609269,12.9148396 69.2725986,11.8265113 Z M67.1285402,17.8306631 C66.0644711,18.8947323 64.3329707,18.8947323 63.2690532,17.8306631 C62.2048325,16.7664424 62.2048325,15.034942 63.2689016,13.9708729 C63.8009362,13.4386867 64.4997527,13.1727452 65.1987209,13.1727452 C65.8976891,13.1727452 66.5965056,13.4386867 67.1285402,13.9708729 C67.6440482,14.4863809 67.9280325,15.1717033 67.9280325,15.9008438 C67.9280325,16.6298328 67.6440482,17.3151551 67.1285402,17.8306631 Z" id="Shape" fill="#333333"></path>
                            <path d="M71.867878,36.5150985 C69.2157411,36.5150985 66.9776783,38.3169505 66.3102471,40.7604584 L62.6072319,40.7604584 C61.7699863,40.7604584 61.091032,41.4394127 61.091032,42.2766583 C61.091032,43.1139039 61.7699863,43.7928583 62.6072319,43.7928583 L66.3102471,43.7928583 C66.9776783,46.2363661 69.2157411,48.0382182 71.867878,48.0382182 C75.0447718,48.0382182 77.6294379,45.4535521 77.6294379,42.2766583 C77.6294379,39.0997645 75.0447718,36.5150985 71.867878,36.5150985 Z M71.867878,45.0058182 C70.3630496,45.0058182 69.1387181,43.7814868 69.1387181,42.2766583 C69.1387181,40.7718298 70.3630496,39.5474984 71.867878,39.5474984 C73.3727065,39.5474984 74.597038,40.7718298 74.597038,42.2766583 C74.597038,43.7814868 73.3727065,45.0058182 71.867878,45.0058182 Z" id="Shape" fill="#0073FF"></path>
                            <path d="M57.9293002,41.2042501 C57.6474386,40.9222369 57.256259,40.7600035 56.8574985,40.7600035 C56.4587379,40.7600035 56.0675583,40.9220853 55.7855451,41.2042501 C55.5035319,41.4864149 55.3412985,41.8774429 55.3412985,42.2762034 C55.3412985,42.6764802 55.5033803,43.0661436 55.7855451,43.3480052 C56.0675583,43.6316862 56.4587379,43.7924034 56.8574985,43.7924034 C57.256259,43.7924034 57.6474386,43.6315346 57.9293002,43.3480052 C58.2113134,43.0661436 58.3736984,42.674964 58.3736984,42.2762034 C58.3736984,41.8774429 58.211465,41.4877795 57.9293002,41.2042501 Z" id="Path" fill="#333333"></path>
                            <path d="M15.022206,40.7219469 L11.3191908,40.7219469 C10.6517596,38.278439 8.41369681,36.476587 5.76155984,36.476587 C2.58466607,36.476587 5.06261699e-14,39.0612531 5.06261699e-14,42.2381468 C5.06261699e-14,45.4150406 2.58466607,47.9997067 5.76155984,47.9997067 C8.41369681,47.9997067 10.6517596,46.1978546 11.3191908,43.7543468 L15.022206,43.7543468 C15.8594516,43.7543468 16.5384059,43.0753924 16.5384059,42.2381468 C16.5384059,41.4009012 15.8596032,40.7219469 15.022206,40.7219469 Z M5.76155984,44.9673068 C4.25673138,44.9673068 3.03239992,43.7429753 3.03239992,42.2381468 C3.03239992,40.7333184 4.25673138,39.5089869 5.76155984,39.5089869 C7.2663883,39.5089869 8.49071977,40.7333184 8.49071977,42.2381468 C8.49071977,43.7429753 7.2663883,44.9673068 5.76155984,44.9673068 Z" id="Shape" fill="#0073FF"></path>
                            <path d="M19.9594079,21.2305899 L17.3421435,18.6134772 C17.8361215,17.7522756 18.1005467,16.7740234 18.1005467,15.7545305 C18.1005467,14.2155876 17.5011929,12.768678 16.4128646,11.6803496 C15.3245362,10.5921729 13.8777782,9.99281907 12.3388353,9.99281907 C10.7998923,9.99281907 9.35313431,10.5921729 8.26480597,11.6805012 C6.01855574,13.9269031 6.01855574,17.582158 8.26480597,19.8285598 C9.35313431,20.9167365 10.7998923,21.5160904 12.3389869,21.5160904 C13.3584797,21.5160904 14.3367319,21.2515135 15.1979335,20.7576872 L17.8151979,23.3749515 C18.1113117,23.6709138 18.4993073,23.8190465 18.8873029,23.8190465 C19.2752985,23.8190465 19.663294,23.6709138 19.9594079,23.3749515 C20.551484,22.7828754 20.551484,21.8228176 19.9594079,21.2305899 Z M14.2695643,17.6837434 C14.2694127,17.6840466 14.2691094,17.6841982 14.2688062,17.6845015 C13.2047371,18.7488738 11.4732367,18.7488738 10.4093192,17.6845015 C9.34509845,16.6202807 9.34509845,14.8887804 10.4091676,13.8247112 C10.9412021,13.2926767 11.6400187,13.0265836 12.3389869,13.0265836 C13.0379551,13.0265836 13.7367716,13.2926767 14.2688062,13.8247112 C14.7843142,14.3402192 15.0682984,15.0255416 15.0682984,15.7546822 C15.0682984,16.4832162 14.7844658,17.168387 14.2695643,17.6837434 Z" id="Shape" fill="#333333"></path>
                        </g>
                    </g>
                </g>
            </g>
        </g>
    </g>
</svg>