<?xml version="1.0" encoding="UTF-8"?>
<svg width="120px" height="26px" viewBox="0 0 120 26" version="1.1" xmlns="http://www.w3.org/2000/svg" xmlns:xlink="http://www.w3.org/1999/xlink">
    <!-- Generator: Sketch 60 (88103) - https://sketch.com -->
    <title>Combined Shape</title>
    <desc>Created with Sketch.</desc>
    <g id="Symbols" stroke="none" stroke-width="1" fill="none" fill-rule="evenodd">
        <g id="Logo/Alt-Full-no-Icon" fill="#0077FF" fill-rule="nonzero">
            <path d="M33.9585394,5.40417491 C37.2275394,5.40417491 39.2834393,7.59202487 39.2834393,12.2578748 C39.2834393,16.8932747 36.9552394,19.6043747 33.3488394,19.9834247 L33.3488394,19.9834247 L33.3488394,18.1434747 C35.9206394,17.7749247 37.2009394,15.9006747 37.2009394,12.4951748 C37.2009394,8.46177486 35.3819894,7.17027488 33.4842894,7.17027488 C31.7178395,7.17027488 30.6898895,8.25107486 30.1886895,9.17367484 L30.1886895,9.17367484 L30.1886895,17.8991747 C30.1918395,17.9002247 30.1956895,17.9012747 30.1988395,17.9023247 L30.1988395,17.9023247 L30.1988395,19.7989747 C30.1956895,19.7982747 30.1918395,19.7979247 30.1886895,19.7972247 L30.1886895,19.7972247 L30.1886895,25.1221246 L28.1593895,25.1221246 L28.1593895,5.6677249 L29.6881895,5.6677249 L30.1361895,7.11777488 L30.2415395,7.11777488 C30.9271895,6.19482489 32.1395895,5.40417491 33.9585394,5.40417491 Z M19.0089197,5.45691991 C22.0668696,5.45691991 23.8858196,6.80126988 23.8858196,9.80601983 L23.8858196,16.2911697 C23.8858196,17.5826697 24.2813196,18.4527697 25.2826696,18.4527697 L25.6519196,18.4527697 L25.6519196,19.9556697 C25.4671196,20.0606697 25.1773196,20.1135197 24.9137696,20.1135197 C23.4903196,20.1135197 22.6468196,19.3491197 22.3038196,18.3736697 L22.1988196,18.3736697 C21.5131696,19.1646697 20.3532697,20.2979697 17.9277697,20.2979697 C15.2656697,20.2979697 13.7893698,18.4261697 13.7893698,16.4756197 C13.7893698,13.3123198 16.9001697,11.7572698 21.9877696,11.8360198 L21.9877696,10.2809698 C21.9877696,7.93491986 20.8541196,7.24926988 18.9560697,7.24926988 C17.0317697,7.24926988 16.1091697,8.30346986 15.6874197,8.98911985 L14.1848698,7.80296987 C14.6857197,7.11766988 16.0300697,5.45691991 19.0089197,5.45691991 Z M58.664339,3.49999994e-05 L58.664339,20.0081347 L57.135189,20.0081347 L56.686839,18.5580847 L56.581839,18.5580847 C56.028139,19.4019347 54.7100391,20.2979347 52.8382391,20.2979347 C49.5961892,20.2979347 47.5399392,18.1629347 47.5399392,13.4704848 C47.5399392,8.65973485 49.9178391,6.0704349 53.4738391,5.7144849 L53.4738391,5.7144849 L53.4738391,7.52923487 C50.9457891,7.88413487 49.6224392,9.70798483 49.6224392,13.2335348 C49.6224392,17.2403347 51.3885391,18.5318347 53.2865891,18.5318347 C54.9998391,18.5318347 56.080639,17.5563847 56.634339,16.2120347 L56.634339,16.2120347 L56.634339,7.80293487 C56.631189,7.80188487 56.626989,7.80083487 56.623839,7.79978487 L56.623839,7.79978487 L56.623839,5.9031349 C56.626989,5.9038349 56.630839,5.9041849 56.634339,5.9048849 L56.634339,5.9048849 L56.634339,3.49999994e-05 L58.664339,3.49999994e-05 Z M67.9988388,1.26535498 C70.3711388,1.26535498 72.1113388,2.16170496 73.0073388,3.00520495 L71.3728388,5.03520491 C70.5821888,4.34990493 69.4751388,3.63800494 67.8140388,3.63800494 C65.8897389,3.63800494 64.7564389,4.71880492 64.7564389,6.19510489 C64.7564389,10.0699548 73.4819387,9.30555484 73.4819387,15.0784547 C73.4819387,17.8466047 71.2408888,20.2717547 67.0762389,20.2717547 C64.0445389,20.2717547 62.0411389,19.1118547 61.091939,18.2417547 L62.6476889,16.0539047 C63.6227889,16.8711547 65.1253389,17.9257047 67.3660389,17.9257047 C69.6070888,17.9257047 70.7666388,16.7392047 70.7666388,15.2366547 C70.7666388,11.4143048 62.0677389,12.2053048 62.0677389,6.37955489 C62.0677389,3.47980494 64.5191389,1.26535498 67.9988388,1.26535498 Z M115.129418,5.27236491 C117.132818,5.27236491 118.740718,5.9576649 119.663318,6.95936488 L117.976318,8.69921485 C117.343518,8.01391486 116.236468,7.46021487 115.050318,7.46021487 C113.416168,7.46021487 112.625168,8.30371486 112.625168,9.30541484 C112.625168,12.2580148 119.821518,11.0981148 119.821518,16.0012647 C119.821518,17.9780647 118.187018,20.2453647 114.470368,20.2453647 C111.834168,20.2453647 109.988968,19.2170647 109.118868,18.3210647 L110.700868,16.4230147 C111.518118,17.2665147 112.914968,18.0837647 114.601968,18.0837647 C116.394668,18.0837647 117.211918,17.1874147 117.211918,16.1066147 C117.211918,13.1802648 110.041818,14.3142648 110.041818,9.43736484 C110.041818,7.24951488 111.886668,5.27236491 115.129418,5.27236491 Z M98.1083233,3.49999994e-05 L98.1083233,16.2386347 C98.1083233,17.4510347 98.5563233,17.9518847 99.5317733,17.9518847 C100.006373,17.9518847 100.322423,17.8199347 100.559723,17.7408347 L100.559723,19.8761847 C100.032623,20.0872347 99.3735733,20.2191847 98.7145233,20.2191847 C96.6057734,20.2191847 95.5249734,18.9801847 95.5249734,16.9239347 L95.5249734,3.49999994e-05 L98.1083233,3.49999994e-05 Z M105.249478,3.49999994e-05 L105.249478,16.2386347 C105.249478,17.4510347 105.697478,17.9518847 106.672928,17.9518847 C107.147528,17.9518847 107.463578,17.8199347 107.700878,17.7408347 L107.700878,19.8761847 C107.173778,20.0872347 106.514728,20.2191847 105.855678,20.2191847 C103.746928,20.2191847 102.666128,18.9801847 102.666128,16.9239347 L102.666128,3.49999994e-05 L105.249478,3.49999994e-05 Z M4.63952992,1.52914997 C8.48812986,1.52914997 10.8079298,3.03169995 10.8079298,6.72209989 C10.8079298,9.75344983 8.85737985,11.5198998 6.64292989,11.7571998 L6.64292989,11.7571998 L6.64292989,11.8625498 C7.38107987,12.2051998 8.04012986,12.8117498 8.88362985,14.2348498 L8.88362985,14.2348498 L12.2842298,20.0080997 L9.77997983,20.0080997 L6.43187989,14.1032498 C6.0825799,13.5082498 5.7070299,13.0738998 5.25727991,12.7837498 L5.25727991,12.7837498 L5.25727991,10.4810998 C7.35797987,10.2861498 8.64632985,9.24594984 8.64632985,6.95939988 C8.64632985,4.37604993 7.14377988,3.40059994 4.34972993,3.40059994 L4.34972993,3.40059994 L2.10902996,3.40059994 L2.10902996,6.81134988 L2.10727996,6.81134988 L2.10727996,15.5613497 L2.10902996,15.5613497 L2.10902996,20.0080997 L-6.99999994e-05,20.0080997 L-6.99999994e-05,1.52914997 Z M44.4926992,5.6676549 L44.4926992,20.0082047 L42.4364493,20.0082047 L42.4364493,5.6676549 L44.4926992,5.6676549 Z M86.8309735,5.50952491 L81.7962236,12.3369748 L81.7962236,12.4423248 L87.0682735,20.0082747 L83.8524736,20.0082747 L78.8436237,12.4951748 L78.8436237,12.3898248 L83.6939236,5.50952491 L86.8309735,5.50952491 Z M78.5538237,0.000174999997 L78.5538237,20.0082747 L75.9442237,20.0082747 L75.9442237,0.000174999997 L78.5538237,0.000174999997 Z M91.9925984,5.50945491 L91.9925984,20.0082047 L89.3829985,20.0082047 L89.3829985,5.50945491 L91.9925984,5.50945491 Z M15.8190197,16.3174197 C15.8190197,17.5826697 16.7419697,18.6109697 18.4027197,18.6109697 C20.0368697,18.6109697 21.3287196,17.6358697 21.9877696,16.6600697 L21.9877696,13.4442698 C18.5343197,13.3123198 15.8190197,14.1558198 15.8190197,16.3174197 Z M91.9925984,0.255254996 L91.9925984,2.49420496 L89.3829985,2.49420496 L89.3829985,0.255254996 L91.9925984,0.255254996 Z M44.4926992,0.255254996 L44.4926992,2.33600496 L42.4364493,2.33600496 L42.4364493,0.255254996 L44.4926992,0.255254996 Z" id="Combined-Shape"></path>
        </g>
    </g>
</svg>