<?xml version="1.0" encoding="UTF-8"?>
<svg width="120px" height="26px" viewBox="0 0 120 26" version="1.1" xmlns="http://www.w3.org/2000/svg" xmlns:xlink="http://www.w3.org/1999/xlink">
    <!-- Generator: Sketch 60 (88103) - https://sketch.com -->
    <title>Group 16</title>
    <desc>Created with Sketch.</desc>
    <g id="Symbols" stroke="none" stroke-width="1" fill="none" fill-rule="evenodd">
        <g id="Logo/Alt-Full-no-Icon-White" fill="#FFFFFF">
            <g id="Group-16">
                <g id="Group-10" transform="translate(61.091939, 0.000035)">
                    <path d="M9.67469984,15.2366197 C9.67469984,11.4142698 0.975799983,12.2052698 0.975799983,6.37951989 C0.975799983,3.47976994 3.42719994,1.26531998 6.90689988,1.26531998 C9.27919984,1.26531998 11.0193998,2.16166996 11.9153998,3.00516995 L10.2808998,5.03516991 C9.49024984,4.34986993 8.38319986,3.63796994 6.72209989,3.63796994 C4.79779992,3.63796994 3.66449994,4.71876992 3.66449994,6.19506989 C3.66449994,10.0699198 12.3899998,9.30551984 12.3899998,15.0784197 C12.3899998,17.8465697 10.1489498,20.2717197 5.9842999,20.2717197 C2.95259995,20.2717197 0.949199984,19.1118197 2.13162821e-14,18.2417197 L1.55574997,16.0538697 C2.53084996,16.8711197 4.03339993,17.9256697 6.27409989,17.9256697 C8.51514985,17.9256697 9.67469984,16.7391697 9.67469984,15.2366197" id="Fill-5"></path>
                    <path d="M17.7516847,12.3897898 L22.6019846,5.50948991 L25.7390346,5.50948991 L20.7042846,12.3369398 L20.7042846,12.4422898 L25.9763346,20.0082397 L22.7605346,20.0082397 L17.7516847,12.4951398 L17.7516847,12.3897898 Z M14.8522847,20.0082397 L17.4618847,20.0082397 L17.4618847,0.000139999998 L14.8522847,0.000139999998 L14.8522847,20.0082397 Z" id="Fill-6"></path>
                    <polygon id="Fill-7" points="28.2910595 20.0081697 30.9006595 20.0081697 30.9006595 5.50941991 28.2910595 5.50941991"></polygon>
                    <path d="M37.0163844,2.66453526e-14 L37.0163844,16.2385997 C37.0163844,17.4509997 37.4643844,17.9518497 38.4398343,17.9518497 C38.9144343,17.9518497 39.2304843,17.8198997 39.4677843,17.7407997 L39.4677843,19.8761497 C38.9406843,20.0871997 38.2816343,20.2191497 37.6225844,20.2191497 C35.5138344,20.2191497 34.4330344,18.9801497 34.4330344,16.9238997 L34.4330344,2.66453526e-14 L37.0163844,2.66453526e-14 Z" id="Fill-8"></path>
                    <path d="M44.1575392,2.66453526e-14 L44.1575392,16.2385997 C44.1575392,17.4509997 44.6055392,17.9518497 45.5809892,17.9518497 C46.0555892,17.9518497 46.3716392,17.8198997 46.6089392,17.7407997 L46.6089392,19.8761497 C46.0818392,20.0871997 45.4227892,20.2191497 44.7637392,20.2191497 C42.6549893,20.2191497 41.5741893,18.9801497 41.5741893,16.9238997 L41.5741893,2.66453526e-14 L44.1575392,2.66453526e-14 Z" id="Fill-9"></path>
                    <path d="M48.9498792,9.43732984 C48.9498792,7.24947988 50.7947291,5.27232991 54.0374791,5.27232991 C56.040879,5.27232991 57.648779,5.9576299 58.571379,6.95932988 L56.884379,8.69917985 C56.251579,8.01387986 55.1445291,7.46017987 53.9583791,7.46017987 C52.3242291,7.46017987 51.5332291,8.30367986 51.5332291,9.30537984 C51.5332291,12.2579798 58.729579,11.0980798 58.729579,16.0012297 C58.729579,17.9780297 57.095079,20.2453297 53.3784291,20.2453297 C50.7422291,20.2453297 48.8970292,19.2170297 48.0269292,18.3210297 L49.6089292,16.4229797 C50.4261791,17.2664797 51.8230291,18.0837297 53.5100291,18.0837297 C55.3027291,18.0837297 56.119979,17.1873797 56.119979,16.1065797 C56.119979,13.1802298 48.9498792,14.3142298 48.9498792,9.43732984" id="Fill-10"></path>
                    <polygon id="Fill-14" points="28.2910595 2.49416996 30.9006595 2.49416996 30.9006595 0.255219996 28.2910595 0.255219996"></polygon>
                </g>
                <g id="Group-11" transform="translate(-0.000070, 0.000035)">
                    <path d="M21.9878396,13.4442348 C18.5343897,13.3122848 15.8190897,14.1557848 15.8190897,16.3173847 C15.8190897,17.5826347 16.7420397,18.6109347 18.4027897,18.6109347 C20.0369397,18.6109347 21.3287896,17.6358347 21.9878396,16.6600347 L21.9878396,13.4442348 Z M23.8858896,9.80598483 L23.8858896,16.2911347 C23.8858896,17.5826347 24.2813896,18.4527347 25.2827396,18.4527347 L25.6519896,18.4527347 L25.6519896,19.9556347 C25.4671896,20.0606347 25.1773896,20.1134847 24.9138396,20.1134847 C23.4903896,20.1134847 22.6468896,19.3490847 22.3038896,18.3736347 L22.1988896,18.3736347 C21.5132396,19.1646347 20.3533397,20.2979347 17.9278397,20.2979347 C15.2657397,20.2979347 13.7894398,18.4261347 13.7894398,16.4755847 C13.7894398,13.3122848 16.9002397,11.7572348 21.9878396,11.8359848 L21.9878396,10.2809348 C21.9878396,7.93488486 20.8541896,7.24923488 18.9561397,7.24923488 C17.0318397,7.24923488 16.1092397,8.30343486 15.6874897,8.98908485 L14.1849398,7.80293487 C14.6857897,7.11763488 16.0301397,5.45688491 19.0089897,5.45688491 C22.0669396,5.45688491 23.8858896,6.80123488 23.8858896,9.80598483 L23.8858896,9.80598483 Z" id="Fill-1"></path>
                    <polygon id="Fill-3" points="42.4365193 20.0081697 44.4927692 20.0081697 44.4927692 5.6676199 42.4365193 5.6676199"></polygon>
                    <path d="M33.9586094,5.40413991 C32.1396595,5.40413991 30.9272595,6.19478989 30.2416095,7.11773988 L30.1362595,7.11773988 L29.6882595,5.6676899 L28.1594595,5.6676899 L28.1594595,25.1220896 L30.1887595,25.1220896 L30.1887595,19.7971897 C30.1919095,19.7978897 30.1957595,19.7982397 30.1989095,19.7989397 L30.1989095,17.9022897 C30.1957595,17.9012397 30.1919095,17.9001897 30.1887595,17.8991397 L30.1887595,9.17363984 C30.6899595,8.25103986 31.7179095,7.17023988 33.4843594,7.17023988 C35.3820594,7.17023988 37.2010094,8.46173986 37.2010094,12.4951398 C37.2010094,15.9006397 35.9207094,17.7748897 33.3489094,18.1434397 L33.3489094,19.9833897 C36.9553094,19.6043397 39.2835093,16.8932397 39.2835093,12.2578398 C39.2835093,7.59198987 37.2276094,5.40413991 33.9586094,5.40413991" id="Fill-11"></path>
                    <path d="M8.88369985,14.2348148 C8.04019986,12.8117148 7.38114987,12.2051648 6.64299989,11.8625148 L6.64299989,11.7571648 C8.85744985,11.5198648 10.8079998,9.75341483 10.8079998,6.72206489 C10.8079998,3.03166495 8.48819986,1.52911497 4.63959992,1.52911497 L1.50990331e-14,1.52911497 L1.50990331e-14,20.0080647 L2.10909996,20.0080647 L2.10909996,15.5613147 L2.10734996,15.5613147 L2.10734996,6.81131488 L2.10909996,6.81131488 L2.10909996,3.40056494 L4.34979993,3.40056494 C7.14384988,3.40056494 8.64639985,4.37601493 8.64639985,6.95936488 C8.64639985,9.24591484 7.35804987,10.2861148 5.25734991,10.4810648 L5.25734991,12.7837148 C5.7070999,13.0738648 6.0826499,13.5082148 6.43194989,14.1032148 L9.78004983,20.0080647 L12.2842998,20.0080647 L8.88369985,14.2348148 Z" id="Fill-12"></path>
                    <path d="M56.634409,3.55271368e-15 L56.634409,5.9048499 C56.630909,5.9041499 56.627059,5.9037999 56.623909,5.9030999 L56.623909,7.79974987 C56.627059,7.80079987 56.631259,7.80184987 56.634409,7.80289987 L56.634409,16.2119997 C56.080709,17.5563497 54.9999091,18.5317997 53.2866591,18.5317997 C51.3886091,18.5317997 49.6225092,17.2402997 49.6225092,13.2334998 C49.6225092,9.70794983 50.9458591,7.88409987 53.4739091,7.52919987 L53.4739091,5.7144499 C49.9179091,6.0703999 47.5400092,8.65969985 47.5400092,13.4704498 C47.5400092,18.1628997 49.5962592,20.2978997 52.8383091,20.2978997 C54.7101091,20.2978997 56.028209,19.4018997 56.581909,18.5580497 L56.686909,18.5580497 L57.135259,20.0080997 L58.664409,20.0080997 L58.664409,3.55271368e-15 L56.634409,3.55271368e-15 Z" id="Fill-13"></path>
                    <polygon id="Fill-15" points="42.4365193 2.33596996 44.4927692 2.33596996 44.4927692 0.255219996 42.4365193 0.255219996"></polygon>
                </g>
            </g>
        </g>
    </g>
</svg>