<?xml version="1.0" encoding="UTF-8"?>
<svg width="78px" height="78px" viewBox="0 0 78 78" version="1.1" xmlns="http://www.w3.org/2000/svg" xmlns:xlink="http://www.w3.org/1999/xlink">
    <!-- Generator: Sketch 59.1 (86144) - https://sketch.com -->
    <title>Icon</title>
    <desc>Created with Sketch.</desc>
    <defs>
        <path d="M60.6521586,10.2317905 C42.6521586,-7.54863177 27.3200407,0.537677283 24.6521586,14.0838212 C21.9842765,27.6299652 -2.79876327,30.3346666 0.261187502,46.3346666 C3.32113827,62.3346666 36.6521586,52.8346666 36.6521586,67.3346666 C36.6521586,81.8346666 75.1895892,81.3346666 75.1895892,62.3346666 C75.1895892,43.3346666 78.6521586,28.0122127 60.6521586,10.2317905 Z" id="path-1"></path>
    </defs>
    <g id="LP" stroke="none" stroke-width="1" fill="none" fill-rule="evenodd">
        <g id="RapidSkills-Beta-LP" transform="translate(-680.000000, -1455.000000)">
            <g id="Features/Benefits" transform="translate(231.000000, 1122.000000)">
                <g id="Service-2" transform="translate(336.000000, 303.000000)">
                    <g id="Icon" transform="translate(113.000000, 30.000000)">
                        <g id="Ornament/bgicon" transform="translate(2.000000, 0.000000)">
                            <mask id="mask-2" fill="white">
                                <use xlink:href="#path-1"></use>
                            </mask>
                            <use id="bgicon" fill-opacity="0.2" fill="#FFFFFF" fill-rule="evenodd" xlink:href="#path-1"></use>
                            <g id="Color/Primary" opacity="0.2" mask="url(#mask-2)" fill="#459EFF" fill-rule="evenodd">
                                <rect id="Rectangle" x="0" y="0" width="76" height="78"></rect>
                            </g>
                        </g>
                        <g id="duplicate" transform="translate(0.899999, 3.899999)" fill-rule="nonzero">
                            <path d="M41.9329199,69.4885277 L1.19796308,69.4885277 C0.535977037,69.4885277 0,68.9525507 0,68.2905647 L0,27.5559589 C0,26.8939728 0.535977037,26.3579958 1.19796308,26.3579958 L41.9325689,26.3579958 C42.5945549,26.3579958 43.1305321,26.8939728 43.1305321,27.5559589 L43.1305321,68.2905647 C43.1305321,68.9525507 42.5949059,69.4885277 41.9329199,69.4885277 Z M2.39627716,67.0926016 L40.7349568,67.0926016 L40.7349568,28.753922 L2.39627716,28.753922 L2.39627716,67.0926016 Z" id="Shape" stroke="#0073FF" stroke-width="0.5" fill="#0073FF"></path>
                            <path d="M68.2905647,43.1308829 L65.8942875,43.1308829 C65.2323015,43.1308829 64.6963244,42.5949059 64.6963244,41.9329199 C64.6963244,41.2709338 65.2323015,40.7349568 65.8942875,40.7349568 L67.0922506,40.7349568 L67.0922506,39.5369937 C67.0922506,38.8750077 67.6282276,38.3390306 68.2902137,38.3390306 C68.9521997,38.3390306 69.4881769,38.8750077 69.4881769,39.5369937 L69.4881769,41.9332709 C69.4885277,42.5949059 68.9525507,43.1308829 68.2905647,43.1308829 Z" id="Path" fill="#000000"></path>
                            <path d="M62.6264773,43.1308829 L59.3586671,43.1308829 C58.696681,43.1308829 58.160704,42.5949059 58.160704,41.9329199 C58.160704,41.2709338 58.696681,40.7349568 59.3586671,40.7349568 L62.6264773,40.7349568 C63.2884633,40.7349568 63.8244405,41.2709338 63.8244405,41.9329199 C63.8247914,42.5949059 63.2884633,43.1308829 62.6264773,43.1308829 Z M56.0922608,43.1308829 L52.8244506,43.1308829 C52.1624646,43.1308829 51.6264875,42.5949059 51.6264875,41.9329199 C51.6264875,41.2709338 52.1624646,40.7349568 52.8244506,40.7349568 L56.0922608,40.7349568 C56.7542469,40.7349568 57.2902239,41.2709338 57.2902239,41.9329199 C57.2902239,42.5949059 56.7542469,43.1308829 56.0922608,43.1308829 Z" id="Shape" fill="#000000"></path>
                            <path d="M49.5566404,43.1308829 L46.2888302,43.1308829 C45.6268441,43.1308829 45.0908671,42.5949059 45.0908671,41.9329199 C45.0908671,41.2709338 45.6268441,40.7349568 46.2888302,40.7349568 L49.5566404,40.7349568 C50.2186264,40.7349568 50.7546036,41.2709338 50.7546036,41.9329199 C50.7549545,42.5949059 50.2186264,43.1308829 49.5566404,43.1308829 Z M43.0217219,43.1308829 L39.7539117,43.1308829 C39.0919257,43.1308829 38.5559486,42.5949059 38.5559486,41.9329199 C38.5559486,41.2709338 39.0919257,40.7349568 39.7539117,40.7349568 L43.0217219,40.7349568 C43.683708,40.7349568 44.2196852,41.2709338 44.2196852,41.9329199 C44.220036,42.5949059 43.68441,43.1308829 43.0217219,43.1308829 Z M36.4864525,43.1308829 L33.2186423,43.1308829 C32.5566562,43.1308829 32.0206792,42.5949059 32.0206792,41.9329199 C32.0206792,41.2709338 32.5566562,40.7349568 33.2186423,40.7349568 L36.4864525,40.7349568 C37.1484385,40.7349568 37.6844156,41.2709338 37.6844156,41.9329199 C37.6844156,42.5949059 37.1487895,43.1308829 36.4864525,43.1308829 Z" id="Shape" fill="#000000"></path>
                            <path d="M29.951885,43.1308829 L27.5556079,43.1308829 C26.8936218,43.1308829 26.3576448,42.5949059 26.3576448,41.9329199 L26.3576448,39.5366427 C26.3576448,38.8746567 26.8936218,38.3386796 27.5556079,38.3386796 C28.2175939,38.3386796 28.753571,38.8746567 28.753571,39.5366427 L28.753571,40.7346058 L29.951534,40.7346058 C30.6135201,40.7346058 31.1494978,41.2705828 31.1494978,41.9325689 C31.1501991,42.5949059 30.6138711,43.1308829 29.951885,43.1308829 Z" id="Path" fill="#000000"></path>
                            <path d="M27.5559589,37.4667956 C26.8939728,37.4667956 26.3579958,36.9308185 26.3579958,36.2688325 L26.3579958,33.0010223 C26.3579958,32.3390362 26.8939728,31.8030592 27.5559589,31.8030592 C28.2179449,31.8030592 28.753922,32.3390362 28.753922,33.0010223 L28.753922,36.2688325 C28.753922,36.9308185 28.2179449,37.4667956 27.5559589,37.4667956 Z M27.5559589,30.9325791 C26.8939728,30.9325791 26.3579958,30.3966021 26.3579958,29.734616 L26.3579958,26.4668058 C26.3579958,25.8048198 26.8939728,25.2688427 27.5559589,25.2688427 C28.2179449,25.2688427 28.753922,25.8048198 28.753922,26.4668058 L28.753922,29.734616 C28.753922,30.3966021 28.2179449,30.9325791 27.5559589,30.9325791 Z" id="Shape" fill="#000000"></path>
                            <path d="M27.5559589,24.3969587 C26.8939728,24.3969587 26.3579958,23.8609816 26.3579958,23.1989956 L26.3579958,19.9311854 C26.3579958,19.2691993 26.8939728,18.7332223 27.5559589,18.7332223 C28.2179449,18.7332223 28.753922,19.2691993 28.753922,19.9311854 L28.753922,23.1989956 C28.753922,23.8609816 28.2179449,24.3969587 27.5559589,24.3969587 Z M27.5559589,17.8620402 C26.8939728,17.8620402 26.3579958,17.3260632 26.3579958,16.6640771 L26.3579958,13.3962669 C26.3579958,12.7342809 26.8939728,12.1983038 27.5559589,12.1983038 C28.2179449,12.1983038 28.753922,12.7342809 28.753922,13.3962669 L28.753922,16.6640771 C28.753922,17.3267652 28.2179449,17.8620402 27.5559589,17.8620402 Z M27.5559589,11.3267708 C26.8939728,11.3267708 26.3579958,10.7907937 26.3579958,10.1288077 L26.3579958,6.86099747 C26.3579958,6.19901142 26.8939728,5.66303439 27.5559589,5.66303439 C28.2179449,5.66303439 28.753922,6.19901142 28.753922,6.86099747 L28.753922,10.1288077 C28.753922,10.7911447 28.2179449,11.3267708 27.5559589,11.3267708 Z" id="Shape" fill="#000000"></path>
                            <path d="M27.5559589,4.79220333 C26.8939728,4.79220333 26.3579956,4.25622629 26.3579956,3.59424025 L26.3579956,1.19796308 C26.3576448,0.535977037 26.8939728,0 27.5559589,0 L29.952236,0 C30.6142221,0 31.1501991,0.535977037 31.1501991,1.19796308 C31.1501991,1.85994913 30.6142221,2.39592616 29.952236,2.39592616 L28.753922,2.39592616 L28.753922,3.59388925 C28.753922,4.25622629 28.2179449,4.79220333 27.5559589,4.79220333 Z" id="Path" fill="#000000"></path>
                            <path d="M43.0217219,2.39627716 L39.7539117,2.39627716 C39.0919257,2.39627716 38.5559486,1.86030013 38.5559486,1.19831408 C38.5559486,0.536328037 39.0922767,0 39.7542627,0 L43.0220729,0 C43.684059,0 44.220036,0.535977037 44.220036,1.19796308 C44.220036,1.85994913 43.68441,2.39627716 43.0217219,2.39627716 Z M36.4875055,2.39627716 L33.2196953,2.39627716 C32.5577092,2.39627716 32.0217322,1.86030013 32.0217322,1.19831408 C32.0217322,0.536328037 32.5577092,0 33.2196953,0 L36.4875055,0 C37.1494915,0 37.6854686,0.535977037 37.6854686,1.19796308 C37.6854686,1.85994913 37.1501935,2.39627716 36.4875055,2.39627716 Z" id="Shape" fill="#000000"></path>
                            <path d="M62.6278813,2.39627716 L59.3600711,2.39627716 C58.698085,2.39627716 58.162108,1.86030013 58.162108,1.19831408 C58.162108,0.536328037 58.698085,0 59.3600711,0 L62.6278813,0 C63.2898673,0 63.8258444,0.535977037 63.8258444,1.19796308 C63.8258444,1.85994913 63.2898673,2.39627716 62.6278813,2.39627716 Z M56.0922608,2.39627716 L52.8244506,2.39627716 C52.1624646,2.39627716 51.6264875,1.86030013 51.6264875,1.19831408 C51.6264875,0.536328037 52.1624646,0 52.8244506,0 L56.0922608,0 C56.7542469,0 57.2902239,0.535977037 57.2902239,1.19796308 C57.2902239,1.85994913 56.7542469,2.39627716 56.0922608,2.39627716 Z M49.5580444,2.39627716 L46.2902342,2.39627716 C45.6282481,2.39627716 45.0922711,1.86030013 45.0922711,1.19831408 C45.0922711,0.536328037 45.6282481,0 46.2902342,0 L49.5580444,0 C50.2200304,0 50.7560075,0.535977037 50.7560075,1.19796308 C50.7560075,1.85994913 50.2200304,2.39627716 49.5580444,2.39627716 Z" id="Shape" fill="#000000"></path>
                            <path d="M68.2905647,4.79220333 C67.6285786,4.79220333 67.0926016,4.25622629 67.0926016,3.59424025 L67.0926016,2.39627716 L65.8946385,2.39627716 C65.2326525,2.39627716 64.6966754,1.86030013 64.6966754,1.19831408 C64.6966754,0.536328037 65.2323015,0 65.8942875,0 L68.2905647,0 C68.9525507,0 69.4885277,0.535977037 69.4885277,1.19796308 L69.4885277,3.59424025 C69.4885277,4.25622629 68.9525507,4.79220333 68.2905647,4.79220333 Z" id="Path" fill="#000000"></path>
                            <path d="M68.2905647,17.8620402 C67.6285786,17.8620402 67.0926016,17.3260632 67.0926016,16.6640771 L67.0926016,13.3962669 C67.0926016,12.7342809 67.6285786,12.1983038 68.2905647,12.1983038 C68.9525507,12.1983038 69.4885277,12.7342809 69.4885277,13.3962669 L69.4885277,16.6640771 C69.4885277,17.3267652 68.9525507,17.8620402 68.2905647,17.8620402 Z M68.2905647,11.3278238 C67.6285786,11.3278238 67.0926016,10.7918467 67.0926016,10.1298607 L67.0926016,6.86205047 C67.0926016,6.20006442 67.6285786,5.66408739 68.2905647,5.66408739 C68.9525507,5.66408739 69.4885277,6.20006442 69.4885277,6.86205047 L69.4885277,10.1298607 C69.4885277,10.7921977 68.9525507,11.3278238 68.2905647,11.3278238 Z" id="Shape" fill="#000000"></path>
                            <path d="M68.2905647,37.4681996 C67.6285786,37.4681996 67.0926016,36.9322225 67.0926016,36.2702365 L67.0926016,33.0024263 C67.0926016,32.3404402 67.6285786,31.8044632 68.2905647,31.8044632 C68.9525507,31.8044632 69.4885277,32.3404402 69.4885277,33.0024263 L69.4885277,36.2702365 C69.4885277,36.9318715 68.9525507,37.4681996 68.2905647,37.4681996 Z M68.2905647,30.9325791 C67.6285786,30.9325791 67.0926016,30.3966021 67.0926016,29.734616 L67.0926016,26.4668058 C67.0926016,25.8048198 67.6285786,25.2688427 68.2905647,25.2688427 C68.9525507,25.2688427 69.4885277,25.8048198 69.4885277,26.4668058 L69.4885277,29.734616 C69.4885277,30.3966021 68.9525507,30.9325791 68.2905647,30.9325791 Z M68.2905647,24.3983627 C67.6285786,24.3983627 67.0926016,23.8623856 67.0926016,23.2003996 L67.0926016,19.9325894 C67.0926016,19.2706033 67.6285786,18.7346263 68.2905647,18.7346263 C68.9525507,18.7346263 69.4885277,19.2706033 69.4885277,19.9325894 L69.4885277,23.2003996 C69.4885277,23.8620346 68.9525507,24.3983627 68.2905647,24.3983627 Z" id="Shape" fill="#000000"></path>
                        </g>
                    </g>
                </g>
            </g>
        </g>
    </g>
</svg>