<?xml version="1.0" encoding="UTF-8"?>
<svg width="78px" height="78px" viewBox="0 0 78 78" version="1.1" xmlns="http://www.w3.org/2000/svg" xmlns:xlink="http://www.w3.org/1999/xlink">
    <!-- Generator: Sketch 59.1 (86144) - https://sketch.com -->
    <title>Icon</title>
    <desc>Created with Sketch.</desc>
    <defs>
        <path d="M60.6521586,10.2317905 C42.6521586,-7.54863177 27.3200407,0.537677283 24.6521586,14.0838212 C21.9842765,27.6299652 -2.79876327,30.3346666 0.261187502,46.3346666 C3.32113827,62.3346666 36.6521586,52.8346666 36.6521586,67.3346666 C36.6521586,81.8346666 75.1895892,81.3346666 75.1895892,62.3346666 C75.1895892,43.3346666 78.6521586,28.0122127 60.6521586,10.2317905 Z" id="path-1"></path>
    </defs>
    <g id="LP" stroke="none" stroke-width="1" fill="none" fill-rule="evenodd">
        <g id="RapidSkills-Beta-LP" transform="translate(-346.000000, -1455.000000)">
            <g id="Features/Benefits" transform="translate(231.000000, 1122.000000)">
                <g id="Service-1" transform="translate(0.000000, 303.000000)">
                    <g id="Icon" transform="translate(115.000000, 30.000000)">
                        <g id="Ornament/bgicon">
                            <mask id="mask-2" fill="white">
                                <use xlink:href="#path-1"></use>
                            </mask>
                            <use id="bgicon" fill-opacity="0.2" fill="#FFFFFF" fill-rule="evenodd" xlink:href="#path-1"></use>
                            <g id="Color/Primary" opacity="0.2" mask="url(#mask-2)" fill="#459EFF" fill-rule="evenodd">
                                <rect id="Rectangle" x="0" y="0" width="76" height="78"></rect>
                            </g>
                        </g>
                        <g id="loupe" transform="translate(11.480000, 6.480000)" fill-rule="nonzero">
                            <path d="M58.9391385,7.00092411 C49.6118288,-2.32625684 34.4355822,-2.32625684 25.1084012,7.00092411 C20.5899683,11.5190994 18.1018099,17.5265891 18.1018099,23.9163572 C18.1018099,29.7372157 20.1676331,35.240067 23.9510044,39.5897718 L21.1020771,42.4386991 L18.1986675,39.5352894 C17.8805315,39.2171534 17.4489227,39.038379 16.9990243,39.038379 C16.5491259,39.038379 16.1175171,39.2171534 15.7993811,39.5352894 L2.19668404,53.1381153 C0.780141612,54.5544001 0,56.4375849 0,58.4408113 C0,60.443909 0.780141612,62.3272226 2.19642644,63.7435074 C3.61296886,65.1600498 5.49615369,65.9400627 7.49912252,65.9400627 C9.50209135,65.9400627 11.3855338,65.159921 12.8018186,63.7436362 L26.4046444,50.141068 C26.7227804,49.822932 26.9015548,49.3913232 26.9015548,48.9414248 C26.9015548,48.4915264 26.7227804,48.0599176 26.4046444,47.7417816 L23.5012348,44.8383719 L26.3510636,41.9885431 C30.8324021,45.8802351 36.427603,47.827176 42.0237055,47.827176 C48.1495624,47.827176 54.2755481,45.4953807 58.9391385,40.8319191 C63.457185,36.313615 65.9456011,30.3063829 65.9456011,23.9166148 C65.9456011,17.5264603 63.4574426,11.5190994 58.9391385,7.00092411 Z M10.4025322,61.344221 C9.62702735,62.1197258 8.59598334,62.5468266 7.49912252,62.5468266 C6.4023905,62.5468266 5.37121769,62.119597 4.59571287,61.3440922 C3.82033686,60.5687162 3.39310725,59.5375434 3.39310725,58.4409401 C3.39310725,57.3443369 3.82033686,56.3130353 4.59584167,55.5375305 L12.186541,47.9468312 L17.9933603,53.7533929 L10.4025322,61.344221 Z M20.3929043,51.3539776 L14.586085,45.5471583 L16.9990243,43.1342191 L22.8058436,48.9411672 L20.3929043,51.3539776 Z M56.5397233,38.432375 C48.535576,46.4367799 35.5119638,46.4367799 27.5078164,38.432375 C23.6304212,34.5549798 21.4950459,29.3998885 21.4950459,23.9163572 C21.4950459,18.4328259 23.6304212,13.2777346 27.5078164,9.40046815 C31.5098901,5.39839449 36.7668622,3.39722885 42.0238343,3.39722885 C47.2806776,3.39722885 52.5377784,5.39813689 56.5398521,9.40046815 C60.4172474,13.2777346 62.5526226,18.4329547 62.5526226,23.9163572 C62.5526226,29.3997597 60.4171186,34.5549798 56.5397233,38.432375 Z" id="Shape" fill="#333333"></path>
                            <path d="M53.7397401,12.200065 C47.2793896,5.73997209 36.7678926,5.73971449 30.3075421,12.200065 C23.8474492,18.6604155 23.8474492,29.1719125 30.3076709,35.632263 C33.5378461,38.8621806 37.780647,40.4773326 42.0237055,40.4773326 C46.2667639,40.4773326 50.5096936,38.8621806 53.7398689,35.632263 L53.7398689,35.6321342 C60.1999618,29.1720413 60.1999618,18.6604155 53.7397401,12.200065 Z M51.3403248,33.2329765 C46.2030079,38.3702934 37.8442742,38.3702934 32.7069573,33.2331053 C27.5696404,28.0957884 27.5696404,19.7369259 32.7068285,14.599609 C35.2757446,12.0305642 38.6491454,10.7466858 42.0237055,10.7466858 C45.3973639,10.7466858 48.7720528,12.031337 51.3403248,14.599609 C56.4776417,19.7367971 56.4776417,28.0956596 51.3403248,33.2329765 Z" id="Shape" fill="#0073FF"></path>
                            <path d="M48.3413456,17.5987171 C44.8575631,14.115321 39.189719,14.115321 35.7060654,17.5987171 C35.0435182,18.2612643 35.0435182,19.3354563 35.7060654,19.9982611 C36.3686126,20.6608083 37.4428046,20.6608083 38.1056094,19.9982611 C40.265843,17.8377699 43.7815679,17.8377699 45.9420591,19.9982611 C46.2734615,20.3296635 46.7075175,20.4951715 47.1417024,20.4951715 C47.5758872,20.4951715 48.0102008,20.3295347 48.3413456,19.9982611 C49.0038928,19.3357139 49.0038928,18.2613931 48.3413456,17.5987171 Z" id="Path" fill="#0073FF"></path>
                        </g>
                    </g>
                </g>
            </g>
        </g>
    </g>
</svg>