<?xml version="1.0" encoding="UTF-8"?>
<svg width="76px" height="78px" viewBox="0 0 76 78" version="1.1" xmlns="http://www.w3.org/2000/svg" xmlns:xlink="http://www.w3.org/1999/xlink">
    <!-- Generator: Sketch 59.1 (86144) - https://sketch.com -->
    <title>Icon</title>
    <desc>Created with Sketch.</desc>
    <defs>
        <path d="M60.6521586,10.2317905 C42.6521586,-7.54863177 27.3200407,0.537677283 24.6521586,14.0838212 C21.9842765,27.6299652 -2.79876327,30.3346666 0.261187502,46.3346666 C3.32113827,62.3346666 36.6521586,52.8346666 36.6521586,67.3346666 C36.6521586,81.8346666 75.1895892,81.3346666 75.1895892,62.3346666 C75.1895892,43.3346666 78.6521586,28.0122127 60.6521586,10.2317905 Z" id="path-1"></path>
    </defs>
    <g id="LP" stroke="none" stroke-width="1" fill="none" fill-rule="evenodd">
        <g id="RapidSkills-Beta-LP" transform="translate(-1018.000000, -1858.000000)">
            <g id="Features/Benefits" transform="translate(231.000000, 1122.000000)">
                <g id="Service-6" transform="translate(672.000000, 706.000000)">
                    <g id="Icon" transform="translate(115.000000, 30.000000)">
                        <g id="Ornament/bgicon">
                            <mask id="mask-2" fill="white">
                                <use xlink:href="#path-1"></use>
                            </mask>
                            <use id="bgicon" fill-opacity="0.2" fill="#FFFFFF" fill-rule="evenodd" xlink:href="#path-1"></use>
                            <g id="Color/Primary" opacity="0.2" mask="url(#mask-2)" fill="#459EFF" fill-rule="evenodd">
                                <rect id="Rectangle" x="0" y="0" width="76" height="78"></rect>
                            </g>
                        </g>
                        <g id="icon/home/share" transform="translate(10.000000, 11.000000)" stroke-linecap="round" stroke-linejoin="round">
                            <g id="Group-13">
                                <path d="M40,8 C40,12.418 43.582,16 48,16 C52.418,16 56,12.418 56,8 C56,3.582 52.418,0 48,0 C43.582,0 40,3.582 40,8 Z" id="Stroke-1" stroke="#333333" stroke-width="3"></path>
                                <path d="M40,48 C40,52.418 43.582,56 48,56 C52.418,56 56,52.418 56,48 C56,43.582 52.418,40 48,40 C43.582,40 40,43.582 40,48 Z" id="Stroke-3" stroke="#333333" stroke-width="3"></path>
                                <path d="M0,28 C0,34.076 4.926,39 11,39 C17.074,39 22,34.076 22,28 C22,21.924 17.074,17 11,17 C4.926,17 0,21.924 0,28 Z" id="Stroke-5" stroke="#333333" stroke-width="3"></path>
                                <path d="M6,28 C6,25.244 8.244,23 11,23" id="Stroke-7" stroke="#0073FF" stroke-width="3"></path>
                                <line x1="21" y1="33" x2="41.008" y2="44.116" id="Stroke-9" stroke="#333333" stroke-width="3"></line>
                                <line x1="41.0078" y1="11.8848" x2="20.9998" y2="23.0008" id="Stroke-11" stroke="#333333" stroke-width="3"></line>
                            </g>
                        </g>
                    </g>
                </g>
            </g>
        </g>
    </g>
</svg>