<?xml version="1.0" encoding="UTF-8"?>
<svg width="21px" height="21px" viewBox="0 0 21 21" version="1.1" xmlns="http://www.w3.org/2000/svg" xmlns:xlink="http://www.w3.org/1999/xlink">
    <!-- Generator: Sketch 60 (88103) - https://sketch.com -->
    <title>Shape</title>
    <desc>Created with Sketch.</desc>
    <g id="Symbols" stroke="none" stroke-width="1" fill="none" fill-rule="evenodd">
        <g id="Icon/Help" transform="translate(-1.000000, -1.000000)" fill="#0077FF" fill-rule="nonzero">
            <path d="M18.9808031,4.49920054 C17.0466828,2.56516019 14.4752023,1.5 11.7400018,1.5 C9.00480134,1.5 6.43332088,2.56516019 4.49920054,4.49920054 C2.56516019,6.43332088 1.5,9.00480134 1.5,11.7400018 C1.5,14.4752023 2.56516019,17.0466828 4.49920054,18.9808031 C6.43332088,20.9148435 9.00480134,21.9800037 11.7400018,21.9800037 C14.4752023,21.9800037 17.0466828,20.9148435 18.9808031,18.9808031 C20.9148435,17.0466828 21.9800037,14.4752023 21.9800037,11.7400018 C21.9800037,9.00480134 20.9148435,6.43332088 18.9808031,4.49920054 Z M15.0436824,3.7571204 C17.1704428,4.64048056 18.8705231,6.34980087 19.7419233,8.48268125 L16.6597227,9.41996142 C16.1279626,8.29692122 15.2230025,7.38372105 14.1056423,6.84192096 L15.0436824,3.7571204 Z M15.5800025,11.7400018 C15.5800025,13.8574022 13.8574022,15.5800025 11.7400018,15.5800025 C9.62260145,15.5800025 7.90000114,13.8574022 7.90000114,11.7400018 C7.90000114,9.62260145 9.62260145,7.90000114 11.7400018,7.90000114 C13.8574022,7.90000114 15.5800025,9.62260145 15.5800025,11.7400018 Z M8.50744125,3.7279604 L9.44432142,6.80888095 C8.30196122,7.34284104 7.37444105,8.26208121 6.83024095,9.39864141 L3.7469204,8.46104124 C4.63076056,6.31452086 6.35476087,4.59964055 8.50744125,3.7279604 Z M8.50744125,19.7520033 C6.35476087,18.8803631 4.63076056,17.1654828 3.7469204,15.0189624 L6.83024095,14.0813222 C7.37444105,15.2179225 8.30196122,16.1371226 9.44432142,16.6710827 L8.50744125,19.7520033 Z M15.0437224,19.7229233 L14.1056423,16.6381227 C15.2230025,16.0962826 16.1279626,15.1831224 16.6597227,14.0600422 L19.7419233,14.9973224 C18.8705231,17.1302028 17.1704428,18.8395231 15.0437224,19.7229233 Z" id="Shape"></path>
        </g>
    </g>
</svg>