<?xml version="1.0" encoding="UTF-8"?>
<svg width="18px" height="18px" viewBox="0 0 18 18" version="1.1" xmlns="http://www.w3.org/2000/svg" xmlns:xlink="http://www.w3.org/1999/xlink">
    <!-- Generator: Sketch 60 (88103) - https://sketch.com -->
    <title>Fill</title>
    <desc>Created with Sketch.</desc>
    <g id="Symbols" stroke="none" stroke-width="1" fill="none" fill-rule="evenodd">
        <g id="Icon/Search" transform="translate(-3.000000, -3.000000)" fill="#0077FF" fill-rule="nonzero">
            <path d="M20.4141068,18.0001068 L16.2928932,13.8788932 C16.9228932,12.8288932 17.2928932,11.6038932 17.2928932,10.2928932 C17.2928932,6.43289322 14.1518932,3.29289322 10.2928932,3.29289322 C6.43389322,3.29289322 3.29289322,6.43289322 3.29289322,10.2928932 C3.29289322,14.1528932 6.43389322,17.2928932 10.2928932,17.2928932 C11.6048932,17.2928932 12.8288932,16.9238932 13.8788932,16.2928932 L18.0001068,20.4141068 C18.1951068,20.6091068 18.4511068,20.7071068 18.7071068,20.7071068 C18.9631068,20.7071068 19.2191068,20.6091068 19.4141068,20.4141068 L20.4141068,19.4141068 C20.8051068,19.0231068 20.8051068,18.3911068 20.4141068,18.0001068 Z M10.2928932,15.2928932 C7.53189322,15.2928932 5.29289322,13.0538932 5.29289322,10.2928932 C5.29289322,7.53189322 7.53189322,5.29289322 10.2928932,5.29289322 C13.0538932,5.29289322 15.2928932,7.53189322 15.2928932,10.2928932 C15.2928932,13.0538932 13.0538932,15.2928932 10.2928932,15.2928932 Z" id="Fill"></path>
        </g>
    </g>
</svg>